<mxfile host="app.diagrams.net" modified="2021-10-14T20:29:43.237Z" agent="5.0 (Windows NT 10.0; Win64; x64) AppleWebKit/537.36 (KHTML, like Gecko) Chrome/94.0.4606.71 Safari/537.36" etag="3OcHAHOQcrS9bpFFKeSI" version="15.5.2" type="github">
  <diagram id="o_HeGU8FDAI2xnHcu00s" name="Page-1">
    <mxGraphModel dx="782" dy="468" grid="1" gridSize="10" guides="1" tooltips="1" connect="1" arrows="1" fold="1" page="1" pageScale="1" pageWidth="827" pageHeight="1169" math="0" shadow="0">
      <root>
        <mxCell id="0" />
        <mxCell id="1" parent="0" />
        <mxCell id="Qgadlnfevu5-b5DXsW00-1" value="" style="shape=image;verticalLabelPosition=bottom;labelBackgroundColor=#ffffff;verticalAlign=top;aspect=fixed;imageAspect=0;image=data:image/jpeg,/9j/4AAQSkZJRgABAQAAAQABAAD/2wBDAAgGBgcGBQgHBwcJCQgKDBQNDAsLDBkSEw8UHRofHh0aHBwgJC4nICIsIxwcKDcpLDAxNDQ0Hyc5PTgyPC4zNDL/2wBDAQkJCQwLDBgNDRgyIRwhMjIyMjIyMjIyMjIyMjIyMjIyMjIyMjIyMjIyMjIyMjIyMjIyMjIyMjIyMjIyMjIyMjL/wAARCAEAAQADASIAAhEBAxEB/8QAHwAAAQUBAQEBAQEAAAAAAAAAAAECAwQFBgcICQoL/8QAtRAAAgEDAwIEAwUFBAQAAAF9AQIDAAQRBRIhMUEGE1FhByJxFDKBkaEII0KxwRVS0fAkM2JyggkKFhcYGRolJicoKSo0NTY3ODk6Q0RFRkdISUpTVFVWV1hZWmNkZWZnaGlqc3R1dnd4eXqDhIWGh4iJipKTlJWWl5iZmqKjpKWmp6ipqrKztLW2t7i5usLDxMXGx8jJytLT1NXW19jZ2uHi4+Tl5ufo6erx8vP09fb3+Pn6/8QAHwEAAwEBAQEBAQEBAQAAAAAAAAECAwQFBgcICQoL/8QAtREAAgECBAQDBAcFBAQAAQJ3AAECAxEEBSExBhJBUQdhcRMiMoEIFEKRobHBCSMzUvAVYnLRChYkNOEl8RcYGRomJygpKjU2Nzg5OkNERUZHSElKU1RVVldYWVpjZGVmZ2hpanN0dXZ3eHl6goOEhYaHiImKkpOUlZaXmJmaoqOkpaanqKmqsrO0tba3uLm6wsPExcbHyMnK0tPU1dbX2Nna4uPk5ebn6Onq8vP09fb3+Pn6/9oADAMBAAIRAxEAPwD0OL5fWr0LVRjuB6Cm3WpbF8qBd0rcD2rzz1izqF+2RY2ah7mXjPZB6mrek+H7XTbWdVy8syEOx55x2qLSLAWimWT5riTlmP8AKtsN8lUjKpfZHPzu091afxbof5jFdiowoHoK4e0l829iI/5ZqF/8fxXc1vQ3ZjiOiCiiiug5QooooAKKKKACiiigAooooA5rXPDF7e3zX+j6w+l3cqLHM6wrIJVX7uc8gjJq9p2iSWttsvtTu9QlYDc8jbACBzgL0B/GtckAZPAoqeVF87tYx4NBs4YJFukFyTIzBpSWIXsOfSs9rDTEn+SygH/ABW9dSlGCdAwrxv4lfEJNB+06TYnOoPHjzFb/AFWc8/XHP41zzXPLlR0UnZOUj08RWijCwQr9EAqpciMDhVH0FfKU3ibXbiRJJNXvWdPukzNxXqPw/wDiVcX0iaTrsqtKflt7huC5/ut7+9TOi0rmlOqm9Tf8W+FdP1vULS4vPNYg+XsV8LjBPSp4LIPLHp0C7UOPMxxhB2rY1KQC4tfl6s7fkv8A9erOj2OxZLlx88h49hUc2hvbUkh0+O22+SoVBxtHatSIDApFXHHanqMVFxlqPGavQDpVCI1fgq4nLVLa9KdTV6Utd0djjGv0qhc96vueKz7jvXLVd2bUtzkGJA2KMmr2nWCofOcAuemaSC3BO48itBTj6e1YneWFFSFsJUAfFKX+Q00Q43OatWMYvyOqE4/77zXoQPyj6V58oL3GrJ0xgj8dprvlb5FOewram7NnNXWxJmlpgNOBrojK5zWKw1K0OqHTPPX7aIRP5XfZnG786tVzUEMUnxHurk582LTUixnjaXLZ/P8AlV3xLfalYaV52lW5nud4G3yy+B34BBo5tGyuS7SXU2KK8I1Lx741tIZ7W+jkiR87ZTbmN156giorT4q+IBaRJLMsjxzB97IAWUZypx1B/Oo9tE1+rTPfKK8Ob4x6yzk+Vaxpn/nkSPpnNb1h8ZImQC807Ld2glH8j/jR7aIPDVOh6nRXEQ/FPw9LC7ObmJ1UkI8ec8dMjNb2h+J9M12ygmguYVmkQM1uZBvQ9wR7VanF7MylTnHdGvIu+Mr602eeK2geeeRIokG53c4Cj1Jqvq1xLa6ReT29vLcTRwsyQxffc44A968z8Xa/q+t+BNYOr6NfeHLWCNXS5adS0r5wEKAcgk4pt2Eo3Og+IPiqDRPCT6taXEcrORHbsjBlZj3yPTB/KvlC/upr29lubiRpJZWLO7Hkk12U+vtqvw5sdInmllns7xnyR8ojI4A/HNcfdx7cMFIU9BWUdGzdp8hXDZqV7p38oZI8r7hHUd6gHXrSjlvetDI+lfDtzJrum6BdTA75bZmfPcgAE12aIFXA4ArkvBfl/wDCP+HGjBVTZNww5/hz/WuwBGK4Jbnox2DbkUgGDThSjrSHcmiq/COBVBOKvwHgVcTmqllelKTTQaM10qWhyCOeKz7hutXpDgVmXDc1hUep0UVqctD4s8PHgazYkf8AXZf8auL4h0V/u6tZH/tuv+NUD4W8Pt97RrE/9sF/wpD4O8Nt10Sy/wC/QqfdOxRl3NddY0twNuo2h+ky/wCNPGoWZB23cDfSRT/WsFvAvhh/+YLa/gpFRt8PvCzf8wqMf7rsP60tA5ZF+K4t2vdSCzR5MCsfnHqRXZrcw+WuJUPA6MDXnJ+G/hc8iwdf924cf1pR8O/D6/6sXqf7t5IP61d0jGdKUtz0lJVYZBJ+gqTf/ssfwrzUeAtLX/V3urR/7t8/+NSr4PSMAQ67rkeOn+mE/wA6anYh4Z9y1b69ND8UNRgTS7u5SZIbfzYgCsQUZZmyeg3DpXfZry2DwM1rdyXdp4i1eCeQku6yKS2eueK0I9F1+H/V+M9U9hJFE/8ANa0jVSJlh5PY6XxJbeIL1IodEnsYYmBEzXKFz7YGCPzrkrX4O6c0rz6jqVxPJIdzLCixLnvjrV77J4qC4Xxc5x3bT4Sf5VE9p4x/g8VxD2OnIP5Gk5wbuy406sVZNHW6d4Z0fS9NXT7awg+zj7wdAxc+rE9TXPa38KvDOrozQWx064PSS1+UZ916Gs0R/ECIkx+J9PkB7S2H+Bp63fxFj/5iOgS/71rIv8mq+em0ZezrJ3R5/r3wv8U6Dvns9uqWi85gGJAPdD/TNcYmqywylJEeOVTyCCGU/wBK92XWPiDH96Lw9L9PNWsLxBp+ueIlJ1LwpoM0p6Tw3Txyf99Y5/HNZy9m9joi6y3RymjfETW7SI28eoyhCMAS4fb9CelafizVNI8V6JdSPe6lb6m1vHH9lM2bebYQenQE9cn0rl5fh74rjlbybKPZngeepwPrxmopvDXijT4zJcaVKyDqYiHI/AUk3HZlOEZbo6HWvBtivw/0yDw+YLi+j/f3hSQb3yvOcnqMgfhXmt/ZNLbblHKjpWlLqbxkp88ci8FTkEVdsrN7mE7RnPY1PM46spU1L3UcTJb3NxKSsGWC8rGvQAegrtPh/wCCX1W+W+1K3IsU5VHGPNb/AAq1bafeaDMb+NY1IUqC4yOeK77wT4mg14Na3cUcN/B95UPDqO4/rVuq5R90yVBQl7x0ozHf2UaBVVIpAoAwAPlHFaccz4qq8MZ1WDaflEEh/VKtrEMcNWDN0iVZT3FSo+agVD/eFTKCKkdi0jVdhbpVCMHNW4utWjmqJF4HilzUanigtV8xy2GTNxWdO1XZTWfN1qJM6aKM4NSg81CD708H3pHYTBqdn3qENS7unNAybNLmoQ3NKGxQImBpc1CHpd1AWJQaN1RB+tKGpCsS5pCaj3A0bqAsP3UZ96jLUm/FA7D801jimFuKQtQMUnvTC3ekLe+KjdjtODzjg+lAjj/HUvhe2tVbW7ZJZ3/1Yj4lPvkdvrXl0WqX/kyS6epjtI22lgu7ZnpuPrx+lUPEWs3Gr63c3F04dg5RcdAAcDAqCw1a602O4W1dl84AEA9CDw2PUcj8a61TVrPU5HVd77Gs3ibUWtmgmaKRCMHelZ+m3s9nqUNzFK0Lh+ZE4IBPOKqNIHYMoYKQOG6570/IAGOpOKpQiloJyct2fScQH26Mbi221HzN1OT1/SrYA9arW0OLmI9/safzNXPKODXEzqQLkdzUyE8VEemKkU0hlqNjVuNqooeasxt0powqIu78CjfUO7igNzVXMOUSU1RlNWpWBqjM3WpZvSRlBgKcGqANTg1M6ScN6GnBsVBupQ9AXJ99JuqEvQG9TQJk+73pQ/vVYPTt9AEwenb6rK/Wjfg0CuWQ9G/mq++k39OaLAWd9Jv96g3e1G+gZNvz2pCw71DvpC/pQBKW9643xz4yg8PWElpE5OpTRZiAGQoPGT+tdYz188eO7mafxjqfn5JWYoueyjoPyrSlFNmNabjHQn0aC2eNPPiVy43MWHc1Nr3h2K2tDf2JwqDMkZOcD1FVtMJ+ywOOPlAra1K4P/CP3YPTyiKlykpqzNFGLpO6OME4k2/KFxUgb94PaqUZxitSyjjuDHCisZpDjJ7knAArsZxRZ9M2rbrmA+tov86tkccdaz7YlLyJTwVttv6ir24HvXns7UFKmc00+9C560iiypqwhqohzVhTimmZTROW4pN1RFqTdTuRyiyNVSYjBqV296qzNSZrFWMcNzTt3vVfdzTt/NWWWN9G+oN9G73oETb6XfUAb3pd3WgCcPxRuH41CDSg0AShzik35qLcKN1AEwfnrSbucVET70Bsd+aAJg/60u+q4fPNKHoAm3etJu561FvzSbqQyUtzXjnxY0tINZttQiXAuoyJOOCy9/rjH5V675mc15f8WtRB+wWCyLkbpXQdR2H9a1pfEY1rchgaTFu0uFh97GAAOtT604j8Oz9Pm2j9aj0Wzkn0yJXDbMZ4pnik+RpkUH95/wCVQtaljR3jRbfY5FScda6vwBayXfieziXDIJBK+RnAT5v54rlB6Y/CvUfhRpoBvNTY9MQKPyJ/pXVUdonFTV5HqkUx/tQj0gH/AKFWirbk61hwNjWJvaBOP+BNWpHJkVws7UyznilU+3X3qItTlbmkUWkNTA8VWRu1TA8UImSHsabmkJpM0xJCN0qrMOtWHYYqu5zxSKRz5PApS3SkYZUUY+WtQHZozSEHAo5oAdmjNN7Uc5pAPDcUbvem9KOaBDt1G7imnPpSUDH5pN3NN5ooAduo3ZxzVa6u4LKEy3EgRR61zEvjuz810jzhTwV70m+xUY33djsN3ajJ615de+Nbp9WiltZJmA+UQqOGJ6Vbk1TxjdrldLmUHpuGP50Wn0Qe51Z38t3DChLSD6CuH1Wx0i81qXU74iR2AVUY/KoHTjvWLrC+J7LS2vb5TFGG2su4cA9OhrjbjVriX70jH61SpTl1IlWpw6HoN94isLeIJBGpIwoA4xXH+Jb9Ly8RFIKIOD65rHieeeQAdTUr2lxHM8cissinDKxwQfSt6WHUNUc9bEuorEKgf3h9AK9Y+GVyv9i3UAUgpPuz65A/wrzFLZz/ABj867X4e3X2PUp7aWQDzkBUZ7g//XrSrB8plTklI9Nhf/iaznv5SfzatFHIrHjkxqcw45iQ/qa0I5cj6etcTOyJpBtwFSIcnFVI5KsK3fPNSUW0qUNUCPnrUueKQ2KWFAYYqImgNxQFh7dOtQt15pk1zHEVVpFVmBwD3xTFk3SBUKPxltrj5eM85oE3YzxAuz76/nTvs67cbk/OvHY/Gt5M4SO6RmPQCJf8KG8bXqD5rqMDOOYl/wAK35GZe0PYvs42j51/Ol+zjP3h+deNp45u2IAu4iT/ANMl/wAKcfGt+GC/aYs+nlr/AIUcjF7U9h+zj+8v50423T5l/OvG/wDhNdQ3FftMeRxjyl/wpjeOr5W2m5i3enlL/hRyMPao9m+y8/eH50v2U+o/OvFX8f3qHBuYh/2xX/ChfiDdkgfa4f8Avyv+FP2bD2qPavs3PUfnSfZuOq/nXjDePbxPvXMQ/wC2K/4Un/CwLr/n6h/78r/hS9mw9qj2f7L7j86qajNBpdobm4YhAwUBRuJJ6DAryP8A4T+5/wCfqH/vyv8AhR/wnl0/H2mE5/6Yr/hRyMPaon8T6/d67fraW1nKFTICKCWP1xVfQ/DGo6tq7afcRtbmMB55M8xrj7uPU0xPF88UTQwSW8PUZihUEH14HWmWXiiXToitvJGu47mcoCzH1JIyavltsDmn1PU9K8KWemWS24hjl2Sb1kZRuz2JPrWs1seM8147/wAJ7c55uYh/wAf4UHx5cHrdx/8AfI/wqeRsFVijqfig09vo1vGoXyZJhvOfm4BOAK8ac7nJH3e2euK6LxH4in1m3hieYOisWwvrisWKFm5KYHvXTSjZWOWrK8rhapMW+Vdy/dz02571pi28p9rSBz6hs5qvGdnC7PwGacs2772a3irMyZYMe1gR+NdD4NER8RwmUqWCNsyOhxXNGddpXPI6Vp+HW3a/YhXKHzQMjr9Px6UqjvFoqnpJM9YzjUnbsYV/9Car0UnIrPOf7QZcdIQfzY/4VaiJzXmM9FGmj/nVpH4FZ6N71biapGXkc1NuxVeJckYNWmiYLnFIoiMgpQ4Pfmq8hwcd6jMhA60AYfjCR1W2SNsM27B+pArk57q5sryCzE7MSWV2B+9jqa3fFcqSSRI4dlCgEJ94gnnHvXLykHWIwAQqRM2CfpVxWhnLc43R7SzhvFaSVkJXktjFQXtvbee0IcSqDk7WqJm+Q4PaqNqrRluDzXSrnI9yy1tAEbZEcgcfMetVIIZHTeVxtPfirpmO3B4oWUCJlJBBFNNiaQ+F1niVgE8zse4qvNaKsbyMPn5Ofeq9u6WchYEknoO9Szz3FxGdw8uP07mizuK6sZ0pDYPtzUYpzqBkg/hQRtUZ6mtDIdKrIQrHJxUdWbxcSgEj7oqvgY6igHuJVhB+5XqeTwBzVfmpVZgnAII6EUAixHjcoHYGnszFSxUgAVTEh3jdx7itG3xKdpkLKF3D69gaTKWpmMDvPU0mD6GtV7XcR5kQz6g1TkiEZHyY9eaFJMHBoSNf3IyDye3FT5yNqghfemRqdo2jj3NSFiDjBB961iSSBgFHSjOdwJHNM6qc1DK7ABs+1NsAeXLgA9OtXdPvjaXUUvIaNw6keoOazY1yfvAfWtvQrNLvWbS1UBjJIAWbgY61F9LlLc9bsvGOmXd5I+oWrW7vGgzH0754P19a6K1isdQUGwvYpSeik4b8jXFzaO8V7JHLCeY1Yce5H9Krf2V5bFoXeJuo2muFpPY7k2ejGwmhPzRsPwpyqY25FcdYeJfEGkBV8wXcA/gk54/z9K6fT/HWi3xEeoW72cx4yBkZ+n/66nlZXPbdG7YRGeQbWQYPRmxXQT2CiAkdQK811rV/suqFtOuo5YDGCoYHYT9euevH0rKXUbq5ud73Mp3S8DecYzxxRFK2qJmpNppnaznbI23nmq7uCOtNEpkQN61GxB61Jqcx4gcrqKATiE/LiQjO2ucds6xMcfcgxn6n/wCtW7q7O+qEoiPsJzvPAGOv1rnHb/S9UkB5VFX+Zq4mcmcj9kZjjoajWxlDEcfnWnJC5GUOGqFCzNhgQ1Xzsz5EV10x2HT8M0HTGHHB9qvqZF/iPFW4x5oH971NHtGh+zTMCTTHLB0wriopIJDGQwAaur+zqwwwwapXlnhSduR6imqt2S6Njj5LdkPzYPoKieJjk9TWo1vK0zO6YUcDNSrbhv4fyrX2ljJUrmVKklwwfyyPlA5potm9K3ZYAhHGRioTAGOQRU+0H7Iy0s3z1Aq7DYuFy351Oo2nkCr0Jj2D96q+zHik5sqNJGNNYgnIplvaSpNw5Cd8GtiVYC2fMUH2PFRl4xwWU+4o52HskRLvTgHI9DTx5Ln958p9xUZdc53Aj6UmVz94/TFIuwt1AgjDxPnB7VXWGWXoBU52kfKT9DVq1xuGRVKcooXsoyepSXTbp+kZI9qgubJopfKlGGHPFdrbSKsPrXMam4lv5GXIAOKUa0pOzLnh4QV0JY6DHcrkzlfbbmr0tidB8q4tyJpt2PmXIx9KuaSpWMGjXJCsEZC5+f6dqn2knKzL9jFU7pamhpvjh7eWIyrJAv3W/jjI+h6c12VlrGmamm4opJ/5aW7Z/NT0rx4mMjKfISeVPAP5U9VljZZLUss3+w2PyNU6aexhzyjue4xaVFdAm0mjm45UHDfkeapXehA7llhIPuK8103xjqdowS4QXAXs42uPxFd3o/xItrgLFPOF7eXeLkfg1ZSjKJoqiZTvdGmghY29xLEBzgHj8qoWEmr/ANrWkbyK0XmDdhByK9AmvNK1G0wUa3L9HU74z+Iqhb6G6XsUsBWVBk5jOe1JSLVmalvIQgB9KmJHbGTVQrJG3Ip/neoxUFnKaiUk1V98bt8zMpXopz1PtXNyufsmqyZzubaAPpW3dTk6kcM2GVmIHQ89659yDpNx28y4I/8AHgK1ijKRiDUXAwI1I9zUUl7I5yUUH1FRYFHanyo1sS/bp8Y+X8qVb+6Xo4H4VBilosgsWDqd6wx5x/IUx728cYadyKixS4osh2GFpD1dj+NNw3qfzqbHNG2ncXKRYb1J+ppNlTBc9KXYR1FAcpBso2eoqbFGKLj5SLZR5dS45peKVx8pD5YpfLqWjpRcOUi2gAgjORx7GprY9Oe9NIyKfCgGcetO90RKNndG1ACVAHWueuQfPcn++c11FpHhUNc7qKiK4mHYOelRDcuovdub2jKrRLUXiCPECDsHqvod4gAQ9ulX9cZZbQsvYg1LTUy004HLbOKTZjpU1JjNbXMXFDQcgglwT3BJxQImddvm7vTcBn8+9BApCuapSM3ST2LFpfXumSfubt4kzgqGIz+Brp9M+IM9rPi7gZGBx5ludpH1HeuUE7BdkiLInvTRb2s5+VzEw7Z4oai90Z8so7HtWleN7TUwEaSC7/2XHly//XrcRtMvPljuDbyH/lnOMfr0r55aynhYN99f7yDmtbTPFeq2bLCJWmQHAhmG78u9Zul1TGqjWj0O31rwjrOjpcan5yXSBDhFGAF9c5rkoZpWs7WOW3k/esJCwXIAz1zW/B43+12NxYlZ7Z5oypjDbkbj9K3dH1TT38N21tcWyuqQBC8LZPT+IUrtblaM8mFFHSjpVHQAFFFL+NIBMUoFGaXNABU0NzJCpCbOuclAT+tQ5ozQMtf2jd5BWYqR0KAL/Koprme4x50zybem5icVHRxQFg70GjIozQFhO9Hel4NFIYho7Up5pOlABUkbfOxCEJkY5zUeas2h3NtxQ9CGrmkLry4FK1i3B86SRj/Ea6EIGtHBXkKa5s0oFy7BamXzlJIyAFGBjgVu3Fu7abJIxzwKyrMZmFdTJGJNOaP1Q0py1JpR0Zx2KDyRzikPB6UlaCuWfsjNjZNA3t5gH88U17O4UZ8rI9VIP8qr0mfQflQIUmmMAeozS5pDTECu6fcldR7GpfMgkXE6Pu7SK3I/CoaafpTM3FM0tMdhdjM4kQK2N/J6e/SoEv0hkLRyy20vqDw35VROeuaNw27WVWX8jT06mTj2LdGabupN1QdVx2TS5xTc0Z+lAXHZozmmEjFLmgLj6MimbuKM80DuPzxRmmbuKM+tAXH7qM0zNLQFx+aQmm0d6AuOzilzTc0maB3HE8VZsXCy1UzUls+2ak9iW9TqVKtbt7iuSY4Yj0Nb0c22POe1YDNudj6mpgi5u5csCPMya6ZZcQEH+7XMWHMmBW3I+23Yk9BSmtQg9DmXb52+tNyaUnJJ96T6VqZhn0pCTRRQAmc0tJRTEIcetH40pHekoExpA700gdqfjmkwKZNiTNGaSikVcWjNJn2opWHcdnikopKLALmjNJR0osAuaXNNzRmiwXHZozxTc0ZosO4+gH1NM3Uu6iwXHlqTdzTc0mTQFyTNAzHLGW4DjIpmaY33gw6igmTNyPPkE9gCax92K0YZN1jIfRTWXn86mKLb2LthJtnFbF66ixkPtWRZREoXx/FWhqh26en+0wFTL4io7GGDS/jSfWitDMO1JS9qOtACUc0vagUwEooz7UUABpKD1ooJDOKM0UtABSUtAoHYKCDS0ZoASiloxQA3FGPWnUYpXCw3FJin4xSU7hYTFLikpaAsAoxmk5pDK0R3qqsV7MMg0A3ZXJGikWUxlTvHGBzUw0+7Cea8DpGOrMMVY0fxFZaarebZlpugkU8gfSkvtfF6HEQkUNx17HqKVpXtYjnhy3vqSw28ggmjUbtyfL7mmQ6SSR9onSIYzgfMaryaxM9m1qIEG5doYHmsbz76Pje/4801CQOtFbK510U0cEgto9vldmPWl1tG/s2B2GMSYz+FckmoXHRnx+FWBfySyRrcTSyR7uVDdval7J3uCxCtYmBpQRRgZyOnbNHag0F4pKMUYoGFFFGKAEPNFGKKYg4pKWigBBRmijjvQSFLSUUDuLRQKKBhS5pKKAFo60lLSAOtGKKMd6QwxRiiigAFBGeKKXIpgRPDG/VQarvaKOUYrVw00impMhwi+hUSOaORXR8MpyGHUVYyT98cnrS+vFOFNu5MYKOxEyI3amCFA2doqfHWmEHPAouNxRIB6UuTimKxBqTrSKQlKDRjijHNIoOKWkzS9RSASjtS9qKYCYoxS0lAH//Z;" vertex="1" parent="1">
          <mxGeometry x="540" y="120" width="112.5" height="112.5" as="geometry" />
        </mxCell>
        <mxCell id="Qgadlnfevu5-b5DXsW00-2" value="" style="shape=image;verticalLabelPosition=bottom;labelBackgroundColor=#ffffff;verticalAlign=top;aspect=fixed;imageAspect=0;image=data:image/png,iVBORw0KGgoAAAANSUhEUgAAAggAAAIICAYAAAAL/BZjAAAgAElEQVR4nOzdaZRkaVof9q7uYRZggBmYGQSIAY/xaPAxNj7ICB8LbCQ4RiAdZPlYtmUZcySdg410BBgbkGe6a+2qyn2PjDUj98zIfY097r1x740b+5YZmRG5ReS+1dILM9Nb1d8f7o3IrOruoXumh+ge/r9z4tSXyqp63/yQ/3re533eZ54hIiIiIiIiIiIiIiIiIiIiIiIiIiIiIiIiIiIiIiIiIiIiIiIiIiIiIiIiIiIiIiIiIiIiIiIiIiIiIiIiIiIiIiIiIiIiIiIiIiIiIiIiIiIiIiIiIiIiIiIiIiIiIiIiIiIiIiIiIiIiIiIiIiIiIiIiIiIiIiIiIiIiIiIiIiIiIiIiIiIiIiIiIiIiIiIiIiIiIiIiIiIiIiIiIiIiIiIiIiIiIiIiIiIiIiIiIiIiIiIiIiIiIiIiIiIiIiIiIiIiIiIiIiIiIiIiIiIiIiIiIiIiIiIiIiIiIiIiIiIiIiIiIiIiIiIiIiIiIiIiIiIiIiIiIiIiIiIiIiIiIiIiIiIiIiIiIiIiIiIiIiIiIiIiIiIiIiIiIiIiIiIiIiIiIiIiIiIiIiIiIiIiIiIiIiIiIiIiIiIiIiIiIiIiIiIiIiIiIiIiIiIiIiIiIiIiIiIiIiIiIiIiIiIiIiIiIiIiIiIiIiIiIiIiIiIiIiIiIiIiIiIiIiIiIiKi73UAnjtOpz/3ILL+nz1IFX/hYXrti9jc/ES9/11ERERUB2Uh/uN7YvJrB2Ji60BKvXaspN88VjJvnUXzb5wnCi/fTxfdL+c2fhnAs/X+txIREdF3WTKZ/L7tJenf77jl18teBbt+DQdCHIdSEkdKGsdqFqfRPM5iKzhPFPAgW1Tur2z97Xr/u4mIiOi7pOByfXx9wj1Umg1ga1HEjlvGrj+C/VAMB2ISR3IKJ2oWJ1pODwjxVZwlVnE/XXz566vbf7fe/34iIiL6gOEqnk06J22r40uPi9M+bC4I2HGHUfGp2AtGcSAmcCSncaxkcBypVhFWcRZfxXmigPuZ9XsPVnZ+od7rICIiog9Q3Dr6z2PWscf54XmsTXqwORfEzpKEskfBXkDDfuipYwYtX6sinMdXcZ4s4H66lMX2gx+u91qIiIjoA5Dpm/mRiGnoRDMNITs4i8L4Mkozfmwtiii7Zez6IhdVhHAKJ0oGJ5EcTrU8TmMrtSrCeWrt0YNs6c/rvR4iIiL6AMQto/+H3OmE3OlE2jmF1dFFFKd82JwLYntJQsVrVBGqzYpyWu9FiORwGs3jNLqCMyMo3Euvl1AsfrreayIiIqLvkGYaVuSOPkhtdsStY8gPzWFtwoONmQC2FoQnqgjVkHBcCwlZnGp6UDiLruA8vvr6WXrtV+u9JiIiIvoOnAx4f0DtGTiV2uwQW2yIdA0g45w2qgjeiyqCR9FvNASjOBDiOKqFhAxO1CxOIzmc6rcbHt9PFv603usiIiKi78DKyNwX1J6B18VWO8QWK6RWOxLWMeQGZ7E2vozStA+bc6FaSNjz6SHhUEhchAQ5rfclGEHhXmKtq97rIiIiou/Aev/0jypd/a9JrXaIzVYIzVaonf1IOSawMjyPNZcbG9N+bM2HsPO2kBDHkZjAiZTCcThVCwpn0bwDwJV6r42IiIi+TTmv9weU7oFXqgEh1GSG2GxFtGcIGecUVkcWsD7h0UPCXAjlJQkVt4x9XwSHwRhOpBROI1mcR1dwHl3BiZx+fK5l7zIgEBERfYQBeFYzDZelNiMgNJoRauhFuNWOeO8Iss5pPSRUKwlzQZQXROx5VRyEYvq1R2P8sjET4fGZlvu9eq+LiIiIvkOaZbhPb1K0QmiyQDBCgtxqR6J3BFnnFFaH51Ecd2Nj0ovt2SDKy2HsB/SGxWM5jZNITr/FkFzD/UyphY84ERERfcSl7aO/pHT1Qz9muAgIobsmyC12xE3DyDomsTI4i8LQPEqTXmzNC3o/QkDDoZjAsZLRrzvGVnAvuf7Wy6tb/zOPGYiIiD7itN4RudqHIDZZEGrohXDXBOGuCVKjBdHOAUTaHIj1DGFleB6lKR+2F0XselW9YVFK4ljVQ8JZfBX308VXX1rZ/qV6r4uIiIi+A8mRhR9Tuwbu10JCo1kPCHdMCN3ugXi7B6G7JohNFiQso1gdWUBpxo+dJQm7vgj2g3o/gh4S9H6Ee+n1jW9sHvxUvddGRERE34GEdfwfqV0DL4db7RCbLBCqVYTb3Qjd7obQaIbQaIbcakfK7kJhbAmbs0HsLIex59f0AUqy8ZhTNI+zRAH3s0U3Cmc/WO+1ERER0bcJzzxzJWEd+Q21u39PbrM/FpssEBt6IdzugXCnB1KLfvwgNJqhtPch45zC2vgytuZDKHtk7AUunoU+iWT11x4TBdzPlpoAfKze6yMiIqLvgGoe+5LWNdijtPfdD7fYHkuNZkiNZigdfZCqNx2aLFC7BpAbnMX6pFd/s6EWEpI4VoybDbEV3EutPXopV/xXbFokIiL6iMPVq88m+0b+TtQ89Ida9+CQ2uGMaJ3OlNzR95rYYoPQZIHYbEXMNIyV4QUUp7zYXhRR8arYD8X0pkVF70fQQ0LxG/dXtv7req+LiIiIPiAArhRcro9HXK5PxXpH/yzc7nhLbLHqzYzNViSsY1gdXURpxo/tatNiKIbDcFIfoqTl9ZsNmeLBK6WjH6v3eoiIiOgD5nK5ntN6h8bDbfbacUO41YaUYwKFsSVszAawsxzGrj+iNy2GU/qT0NFaSMhhc/MT9V4HERERfcCSLtcPa6ahjdoDT02Wi6ZF1zI254Iou2Xs+jUciIlaP8JpVG9afJjfsNd7DURERPRdkLZNfTHSPfiS1GIzjhosiNSaFj1606Jbxn7Q6EcwbjbokxbXHj3IFv+s3msgIiKi74KEdeK/jXQ6H13uR4iahpEfnkfRmLRY8aoXQ5SUjHGzYRX3UuvffClX+gf1XgMRERF9F8TMo3+sdvQ9qo5oFputSFiqTYsBfRyzT7/ZUHv50Xiz4UGmeP9heueL9V4DERERfcAgCB+LWoZnq89Fi81WhFvtSNnfpWlRNsYxG02LD7LF/BknLRIREX3vKdrnPq2ZhgpSq63WtCi39yHdN4k1l7vWtFh9+fFIrjYt5nGeKOBBfnOckxaJiIi+ByWdY19SuwceXg4Jka5+5AZm9EmL8yGUPUptHPOTkxbXH72UK/0FJy0SERF9D0qax35T6XC+LhmTFoUmi960ODSnNy0uiKh4FOwFo7WmxVNNDwn30+uvv7yy/dv1XgMRERF9wABciVqG/1Ru73t8+c2GuGUUK6OLKE1Xn4e+aFo8vjxpMV18+Gph9+frvQ4iIiL6gBVcro9He0cGw+0OSMZRg9RsRdKmPw+9MRPQQ8KlpsUT43no80QB9zOlwivr6z/6fv9eCMLHHiSTP3wcTn/u1a2tz7+U3/0MyuVP8tiCiIjoQyJic3020jOQDlcnLTaaIbc5kOmbqjUt7iyHsefXcCDEa0OUzqIrOE+u4UGmOPtexjHj6tVnT9Tc50+U9D85imRvn2hZ4Sy2Gj+LF/L3U2vSg3Sp/0G29G9fKe58GcBzfx1rJyIiom8h2uv6+Uj34GGtabHRDLXTaTQtevSmRbf+PPShmMCxnDb6EVZxnlx7fD+7cQPAs+/252/7kz9c9qu/vxeMhffF+MuHUvKRfmSRwYnR13CeKOBeau31+9nixoP85u2H6+Wf+WvcAiIiInonMcvY78gdfa9JLTaITRaEGs3QeoawMjyP4qQXWwsCKl4F+8HoU89Dr+J+ev3R/ZXSP3+nP7cyL/3s9qJk21kOPyx7FOwG9ErEoZQ0rlAaj0PVQsI6HmRKbz7Ib2p/Wdj9Bzx2ICIiqrNo78hfyG2OR9WQIDZZEDOPYHVkAaXpS+OYn5i0WGta/ObLa9s/B+BK9Yd6wbXw06tjS5Olaf8bmwsh7LjDqPhU7AX165OXb0ecxlZwFl/FeXIN91JruJ8pPn6Q3yj+5frOb36r6gQRERF9l7lcruei5uGZ2vPQjWZIzVaknm5a9EVwEIrrFQA1i1M1ixM1i5NI9qXTaP74LF7YOUusRdanvMHs0Nxb6xMebMwFsb0kofJUFeFYyei3I6J6QDhLrOI8qVcS7qeLeJgrJR6u7vzn9d4bIiKiv9FyA94fiHQN7FZffhQazZBb7cg4JrE2vozN2YDej+CLYM+v6Z+g3ptwGE7iSNGPDfaCUUTNI0g7p7A6voTStB9bC0JtlHO1inBYfRhKy9VGOl9UEtZxP1t6/DC3OXCUPPr+eu8NERHR32gr1pEvRLoGvi4ZjzqF7pqgtPch2z+NdZcbm7MBbC8IekXAq2DXr2E/ZDwVraRxJKeRH1mA0tmPhHUM+eF5rE9eVBHKnie/5lC+aFisHjXolYS1ak/CSy8Vtn6d/QhERER1lnRM/rLS4YTYbIHYaEaooRda9wByzmnjuEGvCJTd8kVFQND7CvaCUURMQ5Da7NB6BpEZmMHq2BJK0z5szetVhIrX6EW4dNRwEtF7Gp6oJBiNi/ezG2YU8PF67wsREdHfeLHekT8Jt9khGFUEqcmChFV/Hro47avNSLj8bsNROIWNuSDkDifEVhvk9j4kbOPID89jbcKNjZnAxVGDL/Lk8UT1VoMREi7fbrifXs++unXy+XrvCRERET3zzDNx8+hctWEx0tWPWK/+XsPahAcbRj9CbRSznMahlER+ZB5yRx/EFhukVhu0nkG9F2F0UT9qmA1ge1FE2SNj1+hhqPYjHClp/bjBeEHyNJrHaWwF91KFh/cLm/9pvfeDiIiInnnmmXKf8MlI10Ax3O6A3N6HSPcAMs4prE94alWAildFadqPhGUUSqsdalc/wu0OiC1WiC1WhNsdiJlHkB2YQWF8CcUpLzYv32ow+hEOhIQxH6EaFLI4iWT1YUrxla8/SBR+q977QURERIaodeinNNPQy9WQkB+ew+Z8CNuLIorTPsTNoxAaehF8sQvBGx1QO50ItzkgGjchxBYrlA4nEtZx5IfmUHAtozjlw+ZcCNuL1ZAQuehJEBO1QUoX1yDzr5+lCv99vfeCiIiIDJvLy5/QzCNnUqsNmmkYhfFlFKd9yA/NQelwItTQi+DtbgRvdiBwrQ1Kex+kVnstIAjNFkgtNkS6BpC0u/SQML6M0rQPm/Mh7CxJerOjT8VuoFpN0JsXa0FBzX7jLJ7/1XrvBRERERkKNtdnle6Bt5QOJ5IOF3LD80jaXZBa7Xo4uNODwK1O+K+1IXCjHXKbA+E2B6qzFMTqS5GtNmjdg0g5JoxKghvr1eOGRVGftFitJhhBYd+oKBwrmdP72QJ7EIiIiD4sotahn1I6nVC7BxDtHYFmGobUaodgXH8M3u6+CAjX2iC32CBfDgjG2GaxSa8kaD2XQsL4MtYnvdiY1W83bC9LelDwqtj1R7Ab0LAXjOFITsllIfMj9d4LIiIiMiQHp/5WxDQEpatfv77YYtOvPjb0InjXpAeEm3pA8F9thdjQC6XNgXCLDdJTAaEWEroHkbK7kBucRWFsCeuTHpRm/NicC+rXIJck7LhlfV5CQHvzUEw+D5eLz0ATERF9WGw6XJ+LmoYehY3eAqHZCqHJqB7c0QNC8FYXAtfb4X+hBaFbXVBa7JBbbQg3WyE1WSFVA0KjuRYSIp39SFrHkO2fxurIAtbG9ebFjZkANudCekVhSULFp2wfSamv1HsfiIiI6JKE3fVltXvgDalNv7ooGM9BVysIgeoRw/V2+F9oRfBaG8TbPYi0OiC36CEh3GxFuMkCqdECqan6sUJt70PcNIy0YxK5wVl9VoLLrQeF2QC25kOPyp7w/ysIwsfqvQ9ERER0Scwx9jtKp/OR1FatHlhq/QehuyajSbELgRv6LYbACy0QbnRAaTAj0mqH0myD3GyF3GRBuNGCcNPFR2qyQG61Q+vsR9w8goxjEvkBIyiMLz8qTfvGdxflz9R7D4iIiOgpmmX036idzkf61cUnKwjVgBB8sQuBmx0IXG9H4IUWBF9ogXi9A2qDGVqLHWqzFUrTO3yabbUAobTaEelwImEaRsY2/ijfPz29veD/6Xqvn4iIiN5BzDL6B0qnU59t8A4VhNCdHoRudyN4qxPBGx0IXmtD4PkWhJ5vgfhCKyK3TYg126E126G12KE12xAxPmqzDZEWOyItdqgtdqhtDsS6Br6eNo91Flyez9Z77URERPQu4paR/0nucEJqtemvOxoBQWg0Q2jorQWE0K0uhG52InS9A8GrbQi90IrQ15ohPd8C9XoH4g0WJFocSLQ6EG+xI97iQKzVgVhb3+N4u/OtVNfQYap3ZCbTO/IbfNqZiIjoQ06zjn1F7XA+Crfaa1cVq+GgGhCE2z0QXtRDgnCzE8L1DgjX2iFebYPwfAvE51sgPd8C5XoHYnfNSLY7sTXtR2UpjELftCnTM/J7K93TX0mak99X7/USERHRe5Dpm/kRrWeoEm61X8w1aDRDbDBDuGuCcMcE4Y4eEMQXuyHe6oJ4sxPSjQ6I19ohXW2D9EIr5KvtUG90IXqnF9neUZyqWZwnCniQ29hHksGAiIjoIwVX8WzcMtootzn0gGCEA/Fur/ExQbzdo4eDpwKCdK0dYeOj3OhE5MUexJts2Jry4SSSxXl8FfeSa3iY32yp9zqJiIjofUqaR/6O2tl/Fm62Qmo0Q2wwgsEd41MNCLVwoAeE8HX9I1/rgHKjE9ptE7KdAzgIaDhW0jjVcjhPFHA/vf7my4XyL9d7nURERPQ+4OrVZ2Om4T9W2hxvhRstkBp6a8Hg8tGCYIQD8XoHxOvtEK62IvR8C0Jfa4b4tWaot7pRHF3EQTCGo3AKJ2oGZ9E8zhMFPMxu7KB4/ul6r5WIiIjeh31X5FNa10CP3GJ9JDX0PlE1EG52QrzZCcG4yaBfd2xH8IWWWkAQvtYM+WYXiuPL2PNFcCDEcSyncBLJ4iy2Uj1qGKz3OomIiOh9ig4N/VC0q79Xbra8Kd0xGUcKXRBe7ELoxW5jHkIXQjc6ELzejuC1NoSutiL0QguEF1oRvtmJvGMSlaUw9v0aDoUETpSMftQQX8WD9PobL+U2/lm910lERETv077L9alYV/+/VhqtO+E7PY+lOyYItYFJPXpAuNmJ0I0OhK63I3RVDwnCtTYoL3ajNLaE8oKIXbeM/UAUR1ISJ8rFUcP9TPEIWyefr/c6iYiI6H0CcCXd4ficctf0b8PN1vPLASFkzEMI3ujQQ8K1NgjX26Hc6kbe6sJhMIY9XwQ78wL2PAoOjX6EUzWL00hODwrxQuk8Xhi/n16/dj+3+fc4OImIiOgjxOVyPad2OFxio/lx6I4eEoIv6scMQaOKEH6xG1nzKLan/TgKxXGm5XEayaGyLKO8KGHfq2LfH8FBIIrDUBxHUhLHcloPC7EVnMdX37yfXj94mN/8Ywjgq45EREQfBfHuwX8htVjfqk5VDL6oHzGoTVasOqexMxfCQfDiKKFaJbiXKOBMzWLPF0FlScKeR8GBX8NhKI7jcKrWm3AWXanOS3j8IFsqfr249xP1XjMRERH9FdJdti/KrfaHYkMvhNvdUJusWOmfxvZcCHteFfuBKA6FSz/0I/oP/bPYCu4lCriXXMOREMfesoxDv4ajUBzHYhInRhXhVMvjLLaCs/gq7qXWcC9TfO3hevln6r1uIiIi+haEq1c/FulwROQWG2Ldg1gbW8LOXAjl5TB2vSr2g1EcCHF97oGSwUkkq//Qjxo/9JNruJdax7GYxKE3gsNAFMdiAifhNE7VrH4kEdVDwnmigPNkAfezpVc4M4GIiOhDbN/l+pTW0S/HTMNYGZpDacqHLSMgVLwq9gIaDoQ4DqUkjpUMTtSLgHAeX62FhPupdZyISRwHojgW4jiRkjiRMziNZPWjBqOKcJ4o4F5qDfdzpSCbF4mIiD6kYr3D/0ppd76Zso1jdWQBxUkvNmeD2F4UUfEo2PNr2A/FcCgmcCSn9JAQyeE0+lRlQL/iiHuxVT0oiAmcyGk9UBi/32haNELC+qMHudLfr/f6iYiI6CnJkYUfU7sGsuFWOxLWMeSH5rDmcqM07cf2gogdo4qwH4heVBHkNI7VLE60J0NCtcfgfrqIe/ECToQEjiW9F6Hau1CrJFR/f7rkq/ceEBER0VO03pF/rHY5vyk2WxHtHkTWOYXC6BJKUxdVhLJbxq4vgv1gDAdCAofhJI7kNE5U/ZZCrQkxtoLzxCrupdb1Gw6RHI6FBI6lVC0kVPsXTrU8TmMrOE8WHuLs7AfrvQ9ERER0SdQ03C63OR5LzVYobQ6krOPID85hbXwZpWk/tuZD2FmSLo4agjEciAkchVM4VtI4Vi8qA08cN8RXcR7N4ygUx5GQqM1GODF6GE4iRgUitvLGg5XiL9R7H4iIiMgA4NlY77AUbrMj3GxFuNmKaNcgsn1TKIwsYH3Cg42ZALYXBKNhUcHupZBwKOmVhGMlg2M1U/uhXztCiOZxFIrhMBithYRqUDhW9K870XKPzxOFf1LvvSAiIiKDYp/7dNQ0mA232hFusiDcYIbSYkeidwT5/hkURhdRmvRicyaArVpIUGtNi9WQcBhO4UhO40i51JsQyeFEyeAwGMO+T5+yePDE1yT1KoSaeXwcW/nteu8FERERGXJe7w9EugYz4RYbpEYz5EYLlEYLou19SFvHsTI4i7WxJZQmfdiaDV5UEjx6JWEvEH0qKBgVBTWDIzmFQzGBPbeCXbeMvWqwCF76Gv1WxFunav5X6r0XREREZBAE4WPR7qFIuMkKsaEXSoMZkWYbtCYb4h39yNlcWB2cQ3FsWa8kzOrHDTtGSKj41NqRw34oZtxySOAwnMJ+MKo/6DQXQnlRRKX6NV4Vu/7IRVCQEt84ja58od57QURERBeuaN1Ok9pqR6ZvEkWXG9sLAjZn/FgbmkfeNoGcbQJrg3NYH1uqhYRq42LZLaN8KSjsBqLYM4LCzpKE7bkgNia82JoJYHs+hJ1FEZXq13j1rzkQ49sclkRERPQhEzcN/5+5wdm3tuZDqLhl7PkvpibuBzQUhxewYp9EYXAO66NLKLnc2Jj2Y2suWKsm7CyHUfYo2PWp2A1oKLtlFEeXsDYwh+LIIkouNzan/fq1yQUB24ti7WsOxOSL9d4DIiIiuiTtcH1udXghtDHjR3kpXJt1cFi9xiincSynsbMgYMUxiUL/LNaGF7A+vozSlA+bMwFszoWwtSBge0nSf+h7FRSG5pBo7UPGPIbV/hmsDS+gOK4fU2xM+7E5F8TmfAhlt/zy5nL0h+q9D0RERGQQBOFj+eH5O6Up71vbCyJ2ferbw4Exs+BYTmNz0oeseQx5xxQKg3NYG13EusuN0pQPGzOB2g/9jSkf5BudkG92IdZsR8o0jKxjEiuDs/rVSeNrSjP+x1uL4r+r9z4QERHRhSuJvvF/VBhfPt9aEFD2yLUHmY4uzTY4UbM4UTM4VjI4FBNYG5xDsmsQaes4cs5prAzNoWAEheKkF6VpHxJtToSvtUO63oHwrW5ojVbEO/qRMo8i65hErn8aKyMLj9cn3CP13gQiIiK6JNM3+jOrI4uJzdkAyu4w9vwRHIRiF+8sKGl96JGa1YcgyWkcSUlsz4cQa7Yj2upAvHsQKcsYMo4J5AdmkB+aQ6J7COGr7ZCvd0C51Q3ldg+UOyaoDWaozTZoHU5Ee4beSvdN2gA8W+99ICIiIsPRwsL354fmLBvT/rd2liTs+fQrh287WqgFhDSOwikcCHFUPAoSHf1QGy1QmqyItDmgdfYj0TvyjWi787H8YjeUm12Qb3XrweBuL9S7Zqj6730c6xrYTVhG/6XL5Xqu3vtAREREz+hjlSGUP5kfnP390oTnpZ0F/Snn/UAUh8LTfQf6scKxksFROIVDKYH9YAzbCwJiLXZEmqyItNgQaXMgZRl9nLZP/Fayxf4H8Ra7Emt13Is1216Lttgfx1rtr0Xb+h4mOvuVRM/QH0Zsrs/Wex+IiIj+RgNwpVAofPxczv4nx2rmt8/U7J+dRfOtB6HY3n4wisNgDIehGA6FxKWjhSf7DqpHCwdCHHv+CNZGFqHdNYYptTmgtNhQmvZ/E8Xip5955plncPXqs/me4c+kuge+Emu1/0qqe+wr6/3TPwpWDIiIiOqv4Cp8/ECM/cq+X7PsC7HNAzHx6lE49eaJknl0bDzRfBZdwXlsBWdaXn9h8VLl4ETVw8GhlMSBkMBeQMPWfAhKgxmh6+0Qb3VBabZhdWQBB2L86+eK8ul6r5mIiIi+hc3l8Oe2l8PPl93h7YpHeaSPNa5eX0zW+gtqTzPHV3EvUcB5bEWvHlQrB2H9LYX9YAxlt4xEzxACz7dAuN6BSKsDa+PLKHtkHIqJb5QF4ZP1XjcRERG9i+Lo3E8Up32mzdngNzaNKYdlj6I/qmRMRzyS0zhRszjVchchIVHAveQa7sVXcVJ9aElKYj8Yw64vgsLQHEJfa0boahti7U6sjy1he0FAxaviSEq9CuBj9V47ERERvYPMzMyPZAamzKtji68Vp7zYnAti23gvYdcfuXhBUX9iGSeRHE41PSCcxVf1kJBax3l8FcfGrYX9gIat2SDkG50Ifq0Z0VYHVofmsTHtqwWEQzF5zCuLREREH0Iul+u5qHnkjxK28VdyQ3NYm3CjNOPH1oKAHXcYFa+KvYBWqyIcK2kcV6sI2sVRw3l8FfdSazhVMjgIRFFZDiPW5kDgPzRCvduLrM2FtZFFPSAs6tMXj8LJXTzzDB9bIiIi+rBJmse+FOkZzGmmYWT6p1EYX8L6lBcb1SqCx6giBC9VEaq9CFoep9EV/bjBCAnn8VXs+TXknFPw/sVdCM+3INbWh7xjCmuji9iY9usvM/pUHIZTG7jKCgIREdGHisvlei5mGf0DudP5htzpRNIxgfzwPIpbSL4AACAASURBVNZcehVhcz6EHbfx2qJfw0EojgMxgSO5etRQDQl6UDiLGQHBqyD01SYE/qIB4tU2xNudyPdNYf1SQNj1R3CkpDP13gMiIiJ6itwz/JmIaXhZ7uhDuM2BaO8IMv3TWB1bRHHKi9JsAFvG88oVX0RvWHy6H0HNGj0JOSMo5LHvjyD41SYE/4MREDr69YAwtoSNab9xxBDBoZLS6r0HRERE9JRM3/DPRUxD5XC7A2KLDXKHEwnbOHKDsyiML6M45cPmfEgPCW4ZFZ96cauhdtygD0k6rgWFPI7lNOQ7JgT+v0aI19qR6Bp4W0Co+CI4llML9d4DIiIiekrCMv4P1a6Be1KbHWKrDVKrDVrPENJ9k1gZWcCay43itB4Sav0IRiXhQIgblYQkDsMp/RVHVQ8Kx0oGsbY+BL7aBPF6B5Jdg8g7p7E+toyNmQB2liT9iCGcGqj3HhAREdFTEo7xf6h2OV+S2uwQW6wQmq0ItzsQNY8g45zGysgC1icu+hG2l6RaJWE3oOnHDbWgkMKRERSO5BRSpmEEvtoE6WYnkt1DTwSE7WoPgpyy1HsPiIiI6ClR8/h/p3YPPJBa7RBbbBCbrRCbrZA7nIhbxpAdmMHK6CLWJjwXIWFRRNkto+JVseuPYC8YfVtQOJSSiHf0I/i1ZoRvdSHVM4SV/hmsjy9j83IFQU431XsPiIiI6Ckp6+QvRHoGjsNtdkgtNgjNFghGSFA7+xG3jiM7MIPV0UW9kjDtv9STYNxu8EWwG9BqDYz7Qhx7gSgiTVYEv9YM+cVupEzDRkBwY3P2IiAchpPX6r0HRERE9JTcwPTnNdNQPNzmgGRUEIRmC4Qmix4SuvqRsFYrCUZPwpQPG7MBbC0ItSOHskdGxavoFYVAFNsLAsQbnQg+3wL5dg9SvSNYGZjFuutyQNBwrGb+r3rvARERET0laU5+n2YabFE6nY+lFhukFivEJj0gCE0WSC02qJ39SFjG9J4EY0ZCcdKrHznMhWpBYXs5rAcFn4qVwVkEX2hF6IVWKLdNTwaEmUsBQc7+fr33gIiIiN5BzDry65Gu/uNwqx1S85MBQWyyQGyxQulwImYeQbpvEvmhOayOLmJtwo3ilBcbMwFszAUvgsKiCK2tD6EXWhF8oRXKHRPS5lGsDMyi6HJjYzaAnWUJuwENR3Lqn9Z7/URERPQOjhYWvj9mGrYq7Y5H4RZbLSQ88Wm2Qm5zINozhJTNpR85DM+jMLaE9QkP1msVhSBy/TMQrrYh+EIrgldbodztRdo8htXBORQvHzEENByp+V+t9/qJiIjoXaSsY1+Jdg9qslFFkJqtkKrhoNEMsdECqcmCcIsNaocT8d4RpB0TyBlBYXV0EYXxZawMzSF8x4TQ1TYEX2hB6Gob1AYzMpbxi4Awo1cQ9oJRPEwUfrHeayciIqJ3gWeeuRLtGvyNSKdzW2m1I9xsRbjJCqnRAqnRbHwskBotCDdbobQ5oHUOIN47jKRlDJm+SeSc0w/UVjuEm50IXWvXexCutUFtsCBtMSoIEx5szQaxsxzGQSj+6ECN/xf1XjsRERF9CwCuRDucvxnpcCaVFhvCTRaEGy99GswIN5ohN1ogN9ugtNigttqhdTiR6RlW0raJr4p3TQjd6IBQCwjtiDRZkbGOY3XICAhzQZSXw9gPRrEvRX+u3usmIiKi9yDWM/iv5Wbrm1KTBWJDL8S7vZDu9kK8Y4J0txdaex9S5lGsDs9jY8aPslvGiZy+kbAO/+/iHT0ghK61I3StDaFrbdCa7UZAmEdp0oPN2SDKbj0gvKpufb7e6yUiIqL3QDUN/0up1faW0NCL0F0TQndNEBp6oXb2IzcwUwsFe3591PKhmMRJJPei1GL/82oFIXStHaGrbQhdb4fWYkfG5kJheB6lSS82qxWEUOzxy5HCZ+u9XiIiInoPYuah/1Vus78pNJohNPRCbLIg1juCwtiSfkVxScKuV61NTjyUkjhWMo3xnuGvind6aj0IwrV2PSC0OpCxubBqBIStuSDKbhkHocTr9zc3f6je6yUiIqL3QOke/Bdym/1NockCodEMrXsAucFZrE94sDEbxM6ShIoREA6EOA6lBI7VbHPCNHL3IiC0IXS1DcL1DkTb+pC1TegVhGoPglvGvhB/436UAYGIiOgjIWYZ/adKu+MNockMscmCqGkYuaE5rE/o/QPbTwWEo3Dq8Ukk2xnrGbSKt7sh3Oio9R8I1zsQa+9D1j6BwvBCrYJQccs4EBKvlYXyJ+u9XiIiInoPYuaR31Xa+16vTlKMmoZqFYRqQNCPGDTsC3EcSkmcqrlurWtgWLzd80RAEG90ItbufCoghFD2yDgQ469sbm5+ot7rJSIiovdAswz9ltLp/KZoTFSMmoaRGzCOGOYuVxA07IeMgKBl+6Kd/d7LFQThWjvEGx2Id/Qj65hEYXgBG5NebM2HUHHLOBQT5wVX4eP1Xi8RERG9BwnL2G8pHX3fFJutEJos0ExD7xIQqj0ISeyHoptqm/018cVuCNc79P6Da+2QbnQi3tGPnGMSayML2Jj0YdsICEdS8pW/LJR/vN7rJSIiovcgaR/7zXC747VaBaHHOGIwHlp6pwpC2aNAumu6OF642grhWjvCNzqR6BwwAsIiNqZ82J4XUPEoOJHTuJ8sbH99be1v1XvNRERE9FdIO1y/Fu5wGBUE8zsHBI/yZEBwh/VwcFWfnhh6oRXitXbIN7uQ7BxAvm8K6yOL2Jj0YWdewJ5XxWkki7PoCh6ki1sAPlbvdRMREdG3kO13/VdyR983qhUErXsQucFZrFUDwqKIilepzUE4EBMou2UINzoReKEFgeebEXqhFcK1NkReNCHdM4yCcwalsWXsLog4DMRwomZwpuVxFs3jLLaCB5nSi/VeNxEREX0LUevY35PbnX8pteg9CNGeIeQGZmoBYWtRNCoIFwFh16dCadQfZSqOL2NzJqAfJSxJ2PeoOAhEcSTEcRJO4UTJ4ETN4iSSxamWw6mWw3l89ZvnSvHT9V47ERERvYtY78ivKB19X5eqTYrdg08EhCd7EGI4kBLY82vID85ibWQRpQkvtmYD2JkXUFkOY9erYt+v4TAUx7GUxHE4hWM5rYcENYvTSA6n0Tzup0v/d73XTkRERO8i2z/5i0pH3zelZqsxSXEQ2ScCgoiyV7kICKIREJzTKAzNozi2jM0pH7Zmgygviqi4Zez5ItgPRHEoxHFkhIQTJYNjJYNjo5pwFl/N1HvtRERE9C7ilrG/q3T2v3wREAaQ7TcCwozRg+BRsOu/FBACGjLWceT7Z7A2vICSy43NaT+250IoL0nY9ShPhIRDMaEHBTmNYyWNYyWD0+jKOZsViYiIPqQSttFfVDqcr0rVJsUuIyCML6M048f2ooiyR8GeX8Ne8KKCkOgeQsY6jpX+Gf3GwoRHDwnzAspLYVTcFyHhIBTDoZDAoZTUP+EkTtTsq/uRyKfqvX4iIiJ6Bwm768tqh/MVsdmi9yBcCgjVCkLZI+sVBCMg7PojiLTaEe8aRM4+gdWBWayPLumPM83o/QjlJQkVt6yPafZr2A/qQeFAiONATOBITr964s39QL3XT0RERO9gxbn8JbXTeb96zTHSPYBs/zQKRkDYulRBuHyLIXzHBLXZimTPMHKOSawOztVCQvVWw86ihPJyWL8m6YvUgoLxbPQ9HjEQERF9SCWdM19Su5wPq0cMka5+ZPqnUDCOGLYWRZTdMnb9kSeaFKU7Jog3u6A225Ayjbw9JEz7sTUXxM6CiPKShLJbRsWrYNcXwa5fw6GYSNd77URERPQuEo7h/yjS5bwvNFkgNluhdvYj45xGYWzpIiB4FOz6I9gL6u8x7AU0SLd7INzohHirC5FmG1ImvZKwMjiLtdFFFF1ubEz5sDkTwNZ8CNuLIraXJOy4w3pFIhS7Ve+1ExER0bvIuhZ+Uu3sPxON5571gDCFwvgSNmb82FoQUPbIRpNiVD9iCGgI3+2FcLMT4o1OSEZISHQPIWufwMrALAojC1gfX0Zx0oONGT8254LYnA9ha1HE9nL4jTOhwIebiIiIPqzijtG/rXT2HUtGk6La4UT2cgVhQbg4YjACwl5Ag9JghnCjA+KNTv3XW91QGi2Idw4gYx1HzjmF1aE5FEYXseZyozjpRWnGj425IMoe2V7vdRMREdG3kBuY/nyku/+g2oOgdjj1CsLYEkrTFxWEy7cY9kMxKHd7Id3sgnSrC+LNTog3OyHd6oZ8txdaWx+SphGkbS7k+qeRH5rD6ugiCuPLKM74HnDMMhER0YdcvLvvxyNdFwEhUg0I40ZAqDUpGgFB0ANCpNmG8Is9kG51I/xiN6Tq53YP5DsmKE1WaB1OJHqGkbSOI+2YRH5w9pWCy/Mf13vNRERE9FdI20d/Qu0e2K5VENr7kOmrVhB8l44YjB4EIYGDUAyx9j4od3uh3OmFfLsH8m0Twrd7EL5jQviuCXKDGUqzFXKzFZE2B6Jdg/srzpkv1Xu9RERE9B6kbVNfjHQPbIcvHzH0TdaOGLYX9PcVnuhBMI4Y5FvdUO/0QjWCgnKnF0qDGUqDGWqTFWqLHbGO/tcTPcO23ICXQ5GIiIg+KvLDi5/Rugd2ws1WSMYRQ7ZvCqujixc9CG4Zuz49IOwLceyHYlCbLBCutiJ0tRXi9XYoL/ZAvdOLSIMFWrMNWpsDse7BzVj/9I/We41ERET0PiVd/h+OdPSXwy22d6gg+N4WEA6qAaHBgtDVNgjX2iFcb0foejtCNzsRutUF4U4PpGYL1M6BmwCu1HuNRERE9D7tuyKf0roH1qoVBLW9DxnHJAqjiyhN+bA1H3rymqMQx4EQh9pgRuhaO4QbHRBudCB0sxPBW10QbndDbDQj3OZAyjry6/VeHxEREX0bCi7hB6Pdg0W52Qqx8amAMG0EhOUwdn0q9gJ6QDgUE4g024xw0AnBqByEXuyGeLcXWlc/VkcXX95cXv5cvddHRERE34Zox9APRbr6V8NNVkgNZqhtfcg6JlEYuVRBWA7rrzIGojgIxXFgXHMUbnYidLMTwq0uCC92I9Leh6xzCsUpLypeVeTxAhER0UdU0T73aa2tLxdusiDcYIba6tADwugiSlNebM+HUFmWseeLYD+gP9l8KCSQ7B5C6EYHhFtdkBstSFnGsDqyUGts3PVG/rzeayMiIqJvA65efTZiGvodudlyKrfaEe8aRMY+gbWRRWxMeLEzL6CyHMaeT8VhKI5jMYkTOY0zLY/DYAxaWx+0tj5kbC4URhb1dxdmA9hekh4fBZP/Zb3XR0RERO8TgCtJ2/jvxs2jx7mBGRQnvdicC6G8JKHiUbDv1/RqgZjEcTiFEyWD00gOZ1oeZ7EVnMVWcCQmsDIwg9XheeNhJi82ZgIou8PH+5HIp+q9RiIiInqfYr2uX0lYx/byQ3NYn9D/57+1IGBnOYyK91JDopTEsZzGsZLBaSSLUy2HUy2Ps+gKzuOrOJISWBtZxPr4MkpTPmzOhbDri7jqvT4iIiJ6nwo212ejpqHZlM31OD88jzWXG6Vp/Yf79pKEskfBnl+rXWs8qoYENYOTSyHhNJrHeWwV5WUZxQn9WeftRfHxnj/6+/VeIxEREb1PUdPgP1O7Br4RN48g268/7bw+6cHmbFCvIrgv3VowrjUehVM4MioJJ5EcTiI5PShE8zhW0ihN+Yz+g/DrJ1LsZ+u9RiIiInofNpeXPxHtHppS2/seRzr7kXZMID80jzXXcq2KsLUoouxR3jb74DCcxLGSwZGSxomaxUkkixMjJJTdMjbmgih75BIE4WP1XicRERG9D8kO55ciXc5ttc0Btc2BeK9eRVgdXcTahBsbMwFszoewsxw2QsLFGwyHUlKvJFyqJujHDjnsh2J6/4FXtdR7jURERPQeXb169dn88OJnEuaR/0dttb+mNFkhN9sQ6exHyuZCfnAOBeMmQvWoQe9HuPRQUyiGAzGBQymphwU5hSM5hWMlg8NwEttL4uPdoPaPsbn5iYeZzI+8XNj/7MuFwmdRKHycQ5OIiIg+RABc2ZXlz+x6td8ru8PxzfnQ6/mBGWitDsiNFigtNsR6hpDpm9SPGsaXUTT6CWohwXisaS9ghAQhfhEUjIrCoZTEjkd+8yAUix4Kib88lJJvHUlJnKiZxyeR7Etn8cL0w/T6ryWTye+r954QERH9jQXgyok39/ldn/q/VXxatOJV36h4Fex6VZTdMgojC1CaLJCbLFBa7YibR5BxTmHFuNVQnPJiY1Y/bqiGhIpXwa4/gt2Ahv1gzAgLiVpYKHtkVDyKPnXx0g2II1nvWTjV8o/vJQuFV1MbX2FFgYiI6K8RgCvH4fTndv3qv9n1RtSKV3mt4tUbDvVPBLu+CMrLYSRNw1AaLQg3WaG2O5EwjyLrnMbKyAIK48tYn/SiZPQkbC+KRl+CfPHnBLTa0cN+KIayR6m927AfiOIwdHED4liuNjbmcBZffe1hauN/YEggIiL6LgPw3H4k8pNlj/IHu141VvGpb5Q9Cirei1Cw649gz/js+lSUpnxQmqwIN5ohN1sR6XAiYRlDxjmN/PC8ERI8KM34sTF30Zew49YbGGt/dkDDXiCKnQUR5UUJu24Ze34NB8GYHhAuDVvS5yjkcRpbee1+uvg/1nvfiIiIvicBuHIgRH9q1xP5o12fKu/6It+oeFXjh7d6KRho2PNrtbBQ8anYWZSgdfQj3GBGuNECqckKtcOJuGUUaecU8kNz+oyECTeK077akUMtKCyHseMOo+LT/76d2SB2FgT9cSdvBAdGFeHoiSpCxjhuyOE8vnr/pZXNL9V7D4mIiL5n4CqeLbu1n6kEIn+461PjZY/yesWrXAQD/0XVoPbx6ZWDildFxaOg7JaRcUxCutsLqcEMsdEMqdkKpaMPsd4RpByTyA3OYmV0sXbkUJz2ozQbwMZc0Dh6kLDjllFeDmNryoed2SAqRhVh3xfRqwjVaYxGSDhWMxdTGeOrczxqICIi+g5BED5WmZd+di8Y048SvMprlysGe37tbaGg4lNr/8svG8FgZzmMnSUJK8PzEO+aIN3thdhohthkgdhkQbjNAa1nCEnbODL908gPzWF1dBEFl1sPClO+2tHD9qKI7dkAtia82JkJorIgorIUxp5Xxb5fw2Ho4qjhbTMUtNw3zhPFL9d7X4mIiD6SADy7s6R+cc+n/UnFF4lWvMprlXfoMbhcOagYRwxPB4PtJQlbCwI250LIDc5CaOiFeMcEsUEPCIIREqQWG9TOfsTMI0g5JpAdmEF+aA4rowsojC9hbcKDov7+AvbcCnam/NiZ8qM8G9KrCMsy9o2QcLmScBR+MijcSxRu1nt/iYiIPlJcLtdzR0ryp/f82h/v+iLJskd9XQ8GysVRQu2jva1iULkcDBZFPRjMh7AxG0Bp2o+0cwqhBv2IQbpUQRCqQaHZCqnVDrWrH1HzCJI2F9J9k3pYGFlAadqHikfRjw+kJA68EZSnA6jMCagsSthzy/q1x0AUB8HYxdjm6rClcAqnWt7HYwYiIqL3AMCV0+jKF/b9kT/f9avFild5sxoMKpeaDy+aDiO1asFfHQx8WJ/wYHV0EVrPIIRGM8QGM8JGOBCbrW//tFgRbnNA6XBC7R5A0u7CmmsZG7NB7Ps1nMhp/aNkcOBRUJ4JojwvYHcprN9q8EVqL0Q+PWzpSE7z/QYiIqJvBcCV/WD2J3eD6p/t+iJrFa/6RnUA0RM3Ey5VCqrNh2WPogcDj4LtJeniKGE+hNKMXjFYn/CgML6M/PA8knYXpBYb5FY7lDYHlFY7wi02SC0XoUBqsUJqtUFqtUFu74PapY9mXhvXH3famg/hWEriRMnoNxSMoLC3KGFnJoDyXMi4+qgPadrzR7BnXIvUw0Ich1JyBwADAhER0dMAXDlYFn5q1x/584ovktn1qhcVg6f7DKrhoFot8OrBYGc5/GSPQS0Y+LA+eREMMv3TiFvGoHY4H6ldA69rnf3QOpxImkehdfVDbe+D0uGE0u6A3OaA0tkPrWcIMfMIcn1TWBtdRHHCg9K0D+XlMM61PE4VPRwcy2kch9M48GvYnvJjeyaAnXkB5UUJ5eUwKh49KOhr0bAX0HAgxlcAPFvv7wEREdF3FYAr2Nz8xH4k+5NHSvqXzuL5Xz2LFf7+eSL35dOVlS8AeK76e10u13PHgvYzB8HoH1W8SrHsVh69rfnQ92Qo0I8SlIvGQ7cRCp44Sgi+rWKQ6Z9GwjqGqGnoLa17cD9qGrJrnQNvpkwjKAzOojS+jI1JLzanfNiY8KA04cHGtB87CyK2pv3YGnejNLaM0rgbW9N+bM8Gcaz3EOBEyRjhIIUjKYnDUBzbE15sTnqxNRPA9lwIO4sidqpjmy8flwSjS/X8fhEREX1XAbhyGoh+YS8Y+1/2gtHRQzG+cSgk7h2FU68eyamXT5TM0ZmWS9+LF9rvpYq/fqgkvrznVv+k4pFXdj0XPQa7Tx0lVG8kXK4YlD0XwWB7UcTmvIAto8egOOUzgsESVkYWLoJB7/DjmGloN9E7eiftcP18tGdwUWu1I291YW1gDqXRJWy4PNia8mNnXkBlOYxdj2LMM4jiUIjjWLw0z0BO41TN4kTN4Cya128oiAm9vyAYw9akD6XRJZRcHmxM+bA1G8RWddDSooidZX2Gwl4w+qf1/t4RERF9V+xHIp/a9oR/e2c5HCh75G9WvOrjXX8Ee8ajRdWO/WOlOkkwf+9Uze4f+CNv7noU7FZL70Y4uNxv8LZgsPxkxWBjLojSjF8PBpMeFMaWkB+pVgzGoZmGkHJMYGdRfOs4nJ58JVn6se0F5adXh+Ze2fUoOBTiOAzEsLcsY9vlwfakD9uzQZQXROwuy/rbCsZVxaNL8wxqQcEYoXwoJnAQjGHfr6HiUVAaWcTa4DzWRxZRHHejNOnFxrRffylyXsDmgoCd5fCDbX/yp+v9/SMiIvrAFeeUT69Pef9daTZQqT5sVHbLqPhU7AU0vWvf6Ng/Vi6/SZDDsZTUO/x9kYuzeSMU7Pr0wFC9kVBeDmNnWbq4lTAXwsZMAMUpL9Ym3HowGJ5HxjmFuGW0Fgw2ZwM4CMZqo47Poyv3T+T0N4/EBI7EpD7lUEriWErhUIijPBPEznTAmIooouKWa0OP9EpConZV8ch47vlYyeBQTOivRS6Hsb0gYKVvCnn7BFYGZlEYnsfa2BLWXW4UjUFLGzOBx9uLkq3e3z8iIqIPXFkQPpkbXvj3q2NLD9anvCjN+LG1IGBnWTKeR9afRq5VEeRLVYRIDqdqFkdCohYQKkYVoXZV0SOj7JZrRwlb8wI254JGMDCOEi4Fg4R1DJppCEm7C8UpL/b8kScfTDJCwqmW05sKJb0ScBKu/prGUTCG7UkfdqYDKM8LqCxJekh46qrioXjx1PNROIUDMYGdRRGbs0EUhhegNdsQ7xxA2jKGbN8kcgMzWKlOZBxfwvqkZ3/Lq36+3t9DIiKiDxSAKzHzyO8mHa7D/PA81lz6o0a1KoJH1h9KMqoIh1ISh7WyfLoWEk7ktB4QjGOGJyoGSxK2F0RszYewOXtxlHC5YpB2TiFuHYNmGkbMPIKscxqlCQ92FkTs+SLGg0nJ2oNJ+t99KSTIaZyEq7/qYWFvWcbWpA/bM0HszIVQNkJC9ari5cFH1ZkG+8EoipMe5PqnoTT0QrrZifAdE9RmG6Ldg0haRpG2TyDjnEZ2YOaVgmvhv6n395CIiOgDl7ZNfVHrHY7FrWOPs4OzWB1bwvqkVz9jXxSxsxzWKwJGL0I1JBxdPrtX9c9hKK539l8OBosiNp8IBvpRwurTFYOeIUS6BxHtGUSsawCx7iGkzKNY6Z9BadKLitFn8ERIMCoJZ9WQYFQQjiT9FsJBMIrNcTe2Jn2XbiFcuqpo9EfUZhqEYqi4ZUQ7nJBudUG43gHpVjek2z2Q7pogN1mhtDmgdfYjaho6TTtcv1bv7x8REdF3Rcw++gdKV/8bmmkY6b5J5EcWsDbhRmnaj03jEaPqc8h7gctHDQkcXn60SMngOJzCrkf5/9m70yjJ0rM+8Fm9St1IyEIIkJCQxZjlIIwMMsYwtjmY4YjFZhmDYTgGH8QwwIA9GIwBI5Hq7so9Y9/3PSIj18glMiNjuWvc2CPXyH3PrKzqTVs33eruqvzPh3tjyeqlUpVR1Rb1/M6J0/0p33ujPuQ/3/d5nwf7LTsGWxOpRo3Ben3HIBCTawyUowTJ6Iek84DvtyFz1YD00zqkn9Yh87QOXI8ZFWsY65E4DmaFN09VVG4hXOcrjVqEa0wJ1xi52HBbuda4NZLA9ngKOzF5Z6R+VXF/Tmhex0zmsBGdBfOUFuxTOvBdRvBdRgg9Zoj9VkgDDkhqJ/JG39lacPR73u1/O0IIIeSeYNzu90iWwDSvc0PUe1FyDKG+i7A2PNeoRdid4eRfpK0Fi623GoSqHBT4Co7ms9idZLATk3sYbLYeJbQGA1MAWYMPotYNbsCGTLcRqWf0SD2lRfKLGiQ71Uh2qpH6ogbMVQNKpiC2RudxlMw1pyoqn+tCFc+KC/JNBqYoh5hUHkdJCTsjCawHJrERmVF6IsxjeyKN3UmmERT2Znm5IDORRdnox/z/6EHyr3uR/Js+pP5OhfRTWgj9Niw4h1EbmsH+HH8T29uPv9v/foQQQsg9UfZNfVwyB67xWhd4jQt5SxBVzyhWgpNYi8axPprA1kS6JSSI8l/arSHhtpsA1zJF7EyksDGSwHq0GQyqnlEUbRHkTYFbksn/5azeC27QDqbXjHS3EamreqSe1jUCQuO/X9Qg+UUN+D4LVnwT2J/hcJKRg0Dr+OVns4s4TuXkUdHzklwDEeex7oth1T2KWmASa2H5BsLmaAJb40lst/Y0mOGwN8OB6dQg8de9yPztIJgvapXdII9WHwAAIABJREFUixnsxNJyDUNCxHEm/wai0Yfv/A0TQggh34QK9tDPiEbfy5zGCUZlh6j3oGiPYNE3jpXQVLNgsb4tH+flosX6uX3L0KLGdEO2hN1YBmvhaawoOwYlWxg5o/+NvMm/VzAH/qdk8vfxaifYfivSPSaku5Tdg2fkkJB8SovkU5pGUEg9pQXTbUTFEcVOLI1jZQbCCVOUjxKYEq4LVRzW6x9mOOxOMdiZSGPRGsGCJYwl1whW/TGshaaxNhSX2yzL1xSxNZHC9mQGa0MzSPxVD5J/04e8xoUV7xg2huLYHktid4rBfpzH4XwWJ2zpNXR00ORGQggh/zDlzKHfEPWeW6zaCVZlB6t2QDL5UXYNY9E3gdXw9Ll6hMZOwqwSEpQ5BK1B4YQpYm+axaJ7FGVrGHmj/5Zk8O7kTMG/WfRGPwrg4Zw59AyvdoLptyLTY2ruIJwLCNrmjsLTWmS6jCjbIvIxg3LUIQ9Lktc95cry0cZEGtvjKWyOzqMWnILYbUZu0IGyKYgFRxTLnjGsBGKoheWgsBadxdrwHDbG5sF2GZH8wiCkARsW7FHUApPYHJ7D9niqERD250ScsKWX3u1/O0IIIeSeyZn9vyEYPF+v7yAwg/I45Jw5iIprGEt+OSSsjySwWe8eWN+On+WbcwiUoHCcLuA4XcBBnEfJHLyVM/r3skbfny+4xz/Rum7eGn6KUzuaAaHLiNRVA5LP6JB8Wofk01rlo5MDw9NaMF1GlKxh+UbDrCD3Z2gJKceZArZG57E2FMdqYBJV1zBygw652PCqEWK/DXmdF2VrGAuuYSx5x7Hkn8BKaAqr4WlUbENIdaqReUqHgtaDRccwVgOT2IjOYns8hb1646hEFids6fhd+icjhBBC7r2cKfDzotH7dV7rAqOSRyOzKjsErRt5SwhVzyiWlKZA68rkw62JdKNHwl6clwv8Wm4CHCVzOJ6Xnqs6hz+/ZB/97reacJi3hX+P1zjBDNiQUWoQ0l0GeRfhqr4RFBrHDlcNYHvNqNiHsDGSkG8gKFcV60HhOJ3HomsERVMAktYNsccM9otacM/owV41gO02geu1QBx0QNJ5UDAFULZFUHZGUXaEdzNXDUh+YRDM03oU9V4sOkdQC05iIzr3poBwypd30UmTGwkhhPwDtegd+z7J7D/htS6wKgeYQXvjw2vdKFhDqLhHGiGhXpOwNZHCdiyD7cbAIr5Rn3CQyOI4nU/cWFp68u3WLThHPiNoXWDrAaHHhHS3CamWkND8GJDuMkJQObDgHsHm6Dx2JhnsTjHyDYS4vJOxF+dfLRn8RanH8hrXbQL3tAHsM3pwzxjAdZnA95jB9VnA9VkhDNghqJ3Iat2vVR2RL1QswV9juoxI/p0K7FUDigYfllyjqIWm5COGifS5gHCNKy/dz38nQggh5L5a8iWezFlC842AoBwzMAM2MIN2iDoP8tYQKq6Rc4WL544clFsAO9OsUp/A3zxKZv8WDPPI260rOp3vk4y+6+ygHZl+S0tIMMohofXTbUSm1wxJ58GSbxwbI8oNhJiykzElX1U8TEq/09HR0bFoi3yfpHIw0oD9FbHfCnHABqHPCrHfBnHABlHlQFbneaVo8DElV/CTHR0dHXmT/w/kgKAG12VEyejHsnsUa6HpNweE+SxO+Qp3v/6NCCGEkPsOwJWifejPRYPndU7tfNMuQn0nIW8OouyMYtE3juXgJFYj00pQkIv7NseT2FJ+Ye/F+cPr6dKP32ldyRzo5jXyLgLTb0Wm14xMj1neSeg2It1tQrrHhEyPGeyAFQVzEMv+Cfn65cgcNkbnGyFle4p96XSq/ETj53d0XJFU3o+W9d4/Lei8UUntYvMGH1Mw+IfL5uB/Kbqj34nOzsYRQcHo/zumy4jUFzVyQDAFsORRAsJIQu6b0BIQrgvVyXv570IIIYS868q+6MclU6DIaV1g1Q6wKjuYQVtLSLCB17ggGf0o2iJyXYJS3FeLzMhBYXgOG6MJbI0lb+5Oc8aNmPi+O61bdYY/kjX6nuVUjmZI6LMg3WuWPz3yrkKmzwJe5UDREsKSbxyroSnUIvINBDkoJLATS//JZb4DSe/WMF0GpJ/Sgu8xo2wOYtkzhrWwEhBi6UZDpYP5LK6JFfdl1iOEEEL+lwfgoYIj9LuS0fcCfy4kNAMCM2gHp3ZC1HuQs8i7CQueUSz6J7AcmsJKeBq1ofjZxuhccXeG++ELrnulYhv6DVHvef32kJDpk48dmD4LmH4reLUTOaOvse6SbwLLwUmshKewHp0Vt+OX62qY03nc5wNCSAkIM3LNQ6xlByGRxQ2+2nWZ9QghhJBvCmXr1BN5a/gp0eD9WjMkON4UEhiVfA1SNHiRtwRRdAyh4hrGgmfsbDkQ26tFpn+deYfag9uhs/MhyRz4K1HnboQEdsAGZsAKpr/5YQft4NVOiDo38qYAirYwKo4oqu6R5ZVQ7Dsu+/45g2+EuWpA5mkdhD4rKpYwlr3jWIvMYHMk8aaAcMpX/uyyaxJCCCHfFFZCse/ImYOdWaPvWUHnPuM0ck2C/JGDQv3/WbVDDgp6D7JG/82CJbRSdQ//5nY8/g3/JQ/gSs7s+8+i3vsSr3aCHbTLHyUscIN2sIPyf3mVA4LaiZzei4IpsLpmHf2udry7pPdKTJcRmad1EAfsqFjlgLAemcHmaKIx4Kleg3BNrH6uHesSQggh3xTK1qkn8rbgb0pmf0nU+97gdW5wGqf8UcsfVu0Ap3ZC0LqR1Xu/KpkCo3lr6H8vW62P3u26nZ2dD2V1bregcYJXO8GrHM3PoB2CygFB5UBW44KocqDiGMJ+nE8AaEu7Y0nrWqkHhOyAHRVrBMs+OSBsjc5jJ5ZpTH88nJfwnLT02XasSwghhHzTiEajD5dMwU/mLOE/zJkCs1lT4FrW4HtFMHhvigbvq1mj9+8lk7+WMweCOXv4P5atUx9qx7pZrVvTuM3QLXdXTHcZkek2IdNtBNtnkTspjs7jYFbACVMQ2hUQshrXVmtAqNoiWPFNYD0SV/ouZLA3zWFvVsBhUsKz2eV/2Y51CSGEkG866MRDZWv0W4u20A9JltBnRY3rP2YtwV/OmYI/m7VGvleKRt/bzvV4vauLGbAh3W1CptuE1FW5D0K6ywhJ50EtPN34S/4gIeIkUyiDwYXrHd6JoLKfMF1GpJ/WQVI5UbUPyQFhKI6t0Xns1ncQ5gQczEs4za38YDvWJYQQQsgdSEbv55utl+WmSZleM8r2CNaG4tisT5Wsj1xOF2rtCgii2vElplsOCLl6QPDH5IAwpuwgKAHhKJm79cLi5kfbsS4hhBBC7kDUe/6MHbQj3WtuNE0qWsNY8k+gFplRAoLcj+BgTsRRprBXi9Yeu+y66Ox8iFc7Xma6TUg/o0NO7cKCI4pVv7yD0DhimOGwPyfiKJXDjezSh9vxzoQQQgi5g6zO/X+zKrscDnrN4FUOlO1DWPJPYG1oBhutOwjyL+rDfWb/PZddl+nsfERQOd5guk3IPKNHTuPGgnO4ZQchiZ1Jed39OQFHqRxezG+/vx3vTAghhJA7ELWe3+DUzrN6kyRu0C4HBN841obi2FBuE9QDwnGm8Byk40vXQTCdzCO8ynGT6TaBuWpAXuvBgnMYq/WA0LKDIAeT/GvYv3wwIYQQQsgFCAbvL/Fqx616QGjdQagpW/3bsXRzByGd/+pzTO1bLrtu2Vp+lO+3vcb2KAFB58GicxirgRjWo7NKDQKj7CCIOEoXXkPt8kcbhBBCCLkAXuf7N7zaeSvTb2nMXyjZIljyjcs1CC0BYX9WwFG68JUX8/lLb/UzavcH+AHbGdttAnvVgILeh0XnCFaDk9gYnmscMdRvTxxnCq/UKCAQQggh90fO4P9RXuO8lVHmMXCD9nMBYaMeEKbZeg3C10+Z8qV7MCy43R/gBmxgu01gu4woGHxYdCkBITqLrfEkdiaZRpHicabwMoCH2/HOhBBCCLmDnNH3g5zGdZN5h4CwVZ+JMCfiKJ175Tmm9p2XXVe0+j7O91vBdBnPBYSaEhC2x5PYnToXEJ5vV4MmQgghhNxB2Rf9OKdxvl4PCOyATb7m+BY7CPuzAo5SuTeuccWPXXZd0RD6IU4JCFy3CUWjH0vuUdSCU/IRw3hK3kGI89ifE3DMlq61430JIYQQcgFlq/+7eK3z628fEBLNgDAn4jAl3TwUSp+87LoFS+hfcn0WOSD0mFAyBc4FhO3xFHam6gFBxAlT2m7H+xJCCCHkAhbc4x8QdK6/z/Rbkem3gBmwoWAJYdE7jtXwNDZH57E10dxBOE7mbz0vLH7fZdfNmYI/y9YDQq8ZZVMQS54x1ELT2FQCwq4SEA7mRJywxWo73pcQQgghFyA6Y+/jta6/ZwasyPRbwSg7CIveMaxGpuUdhIk0dqYY+YghmTu7wZQ+ddl1S5bQb9UDAt9rQckclHcQQtPyDsLEbTsIbIlpx/sSQggh5ALKVusTgtb9NWbABmbACqbfioI1hEXvGFbCckDYUn5ZKzMRzk758o9eel1H5I/ZPqUGoc8qBwTPGGrhZkDYnWaxF5eLFE+F8nA73pcQQgghFxCNRh8Tde4XmUGbsoNgRd4clANCaOp8QJgVcDgv4YZY+YnLrlswB/6ysYPQb0PZEsKSZwxr4WlsjCTOHTHsz4m4xldc7XhfQgghhFxANBp9WNR7nmUGbGBaAsKCdwyryg7C5vj5gHDKVv7VZdfNmQJPs30WsN0m8P02VCxhLHvHsRaeweZIouWIQd5BuCaUe9rxvoQQQgi5AABXBJ3nlBm0IdMnd1PMmwNY8Mg7COv1K4dTDPbqAUGofPay60par4ftNYPpMkIYsKNilQNCLTyNjZG5Rt3DXpzHQSKLa3z5C+14X0IIIYRcQPTXow+Leu9BPSAw/VbkTAEseEaxEp7C+shc44hhL87jcD6Lo0zply+7bk7rmWV7zch0GSGqHKhYI/IOQmQGGyNz2FFuTtQDwg2h+nvteF9CCCGEXACAK6Leu8MM2lG/6tgICLfvIMR5HCREXGNKv3nZNXM6T47pNSNz1YCs2omKLYJlnxwQ6kcMuy07CNeFhV9v1zsTQggh5AKyBt9avUixfsRQdbcEhHqRovLL+oQp/ufLrinpvVVGOWKQVE5UbENY8U00AsJOLN0MCPNZXBNL/0cbXpUQQgghFyUYPEvMoB2ZASvSfRbkTH5U3aNYVgLC5ngK2631AGzxjy+zXvTXow/nTL4dtle+xSCpXajah7CsBISNEbn3wu40i71ZOSCcitXPtOt9CSGEEHIBosFbZgZtYAZsckAw+lF1j8g7CNFZOSBMZlqOGIp/cdk1cwbfsVyDYICkcWPBEcWKfwJrkbg8Ynoijd0pOSAczktnN6TlH27HuxJCCCHkgkSDj2EH7WAGbMj0WyAZfM2AMDyHzfHkuYBwkil+/rJrSjrPc/VbDDltMyCstwYEpUjxcF7Cc1Llf2vHuxJCCCHkgrIG3xwzaAczINcg1APCcnASa9HZ8wFhTsQxU+y+zHoAHspq3V9le5SAoPMoASGG9SElIMSaAeEombv1vFj9SLvelxBCCCEXIBq8MVblaBQpvm1AmOGUgFDQX2a9WjT6WFbjeo3tMYPtNiKv92LBEcWqP4a12wLC/qyAg2Tu9RvZpQ+3630JIYQQcgGi0RdgVQ7liMGKrN6Limv4TQFhd0buanicKTgBXLnb9cAwjwga5+tsjwlstwkFvQ+LzmGsBJo7CDstAeEwlfv6l8rlb23nOxNCCCHkDrJGr41VO5BRJjo2AkJADggbY/PYjtUDgoDjTHHkMuvtu5n3iGrnGdttAttlREHvxYISEOo7CDuTGexOc0pAyL92Y2npyXa9LyGEEEIuQNL7VJza2dhBEPUeVJxRLAdijYCwFUtjr7mDkLjMeow19CFB5UAzIPiw6BrBamAS60NxbI0lsRPLNK45HqZzX0N8+/F2vS8hhBBCLqBoCX2RVTePGESdGxVnFEuBGGrRODbrASHOY39WwDFT4C9zxMDo7N/ND9rlgNBtQtHgw5J7tBEQNseS8o7FNIu9WQFH6fyXsE0BgRBCCLmvckbfX3IaFzItAaHsjMpHDENxbIzKAaFeg3CUzlcAPHS360nW0A8ISkDgeswoGf1yQAgqOwjjSeWIQa5BOGEKp2CYR9r5zoQQQgi5g5w19PucxtlolCRo5YCwFIihNhRXahDS2J2pFw3mNwA8fLfrVS3hz/ADNrDdRiUgBOQjhuAk1qOzckCIybcm5B2Ewu5l1iOEEELIXZAs/t/iNa4zZtCGdL8FvNaFsuN8QGjsIMwKOE7lDphL/EVfsUd+gu+3ge0ygu81o2QKYMk9ilpQ7ty4NabsICgB4ZgplqLRKAUEQggh5H4S9d6fF7Tus/oRg6BxoeQYwpI/hlpkBhujCWzH0thRagKOU7lr25coGixbw7/I91nAdpvA91pQMgWVI4bbAkLjiKGYQmfnXR9pEEIIIeQuiCb/v+K1rrP6yGe+ERAmsBqZadYgTLPYn+VxnMo/f5mAkDX7/0++zwq22wihz4qSWQ4ItdCbdxD2ZwWcsKWZyxRFEkIIIeQuSGbvPxO0rlv1Wwyc2omSXQ4ItcgM1kcT2JpINa4dHqXyXz6dKj9xt+sVzP4/4fosYLvkgFA2h7DkGWsGhEaRolKDwJa8FBAIIYSQ+6xk8n8/r3HdYgabAaFoj7TsILQGBAHHqdxLz4vi++52vZzJ97d8vxXMVQOEfhvKFiUgBG8LCEoNwglbUnV0dFBAIIQQQu6nvD3w3YLO9Ua9BoFTOVBqCQjrI0pAmGoMT/r6bvLuWx8XDP4+vs8KtssIcaAlIISmsPEWRYonXOl/tvN9CSGEEHIBWbPvw4LO9TozaAMzYAM7aEfRFsGifwKr4WlsKAFhZ4qROxsmc699rbD+bXe7XsHoD3B9VjBdBogDdlSsYSx7x1ALTWNjeA7b46lmDcKcgJNM4b+1830JIYQQcgFJa/RbBb3nVWbQhsyAVQkIYSz6xrEansb6yNy5gHCUzN58rlj7zrtdr2D0ReWAYER2sCUghOWAUD9iqPdBOBUXfrud70sIIYSQCyhbp54QdJ5X6rcY2EE7ilYlIESUgDCuBIQ4j6P53K0TZum773a9nME3w/XKRYpZlQMVawTL3jGsheoBQVlLGS99yhZ+tZ3vSwghhJALqEWjjwk6z8v1gMAM2FC4bQdhczzZCAiH89LZPpP7xN2uJxl9Etcr90HIqpyo2iJY9o5jLTzTcsTAyEcMCfHslCv/XBtflxBCCCEXoQSErzKDdnlg04ANRWsYC96xNweEGQ6H89mzY27hn9ztenm9d6G+gyCpXajah7DiHceacsSwPZHC7pQcEA4SIk6Z6mfa+b6EEEIIuQAAD/E695dbA0LeEmwEhLVhOSBsTzZ3EK6LxR+627UkrWeN7TGB6TIip3HLAcE3Ie8gjDQDwt4Mh8OEdOtUqPxYu9+ZEEIIIXcQ/fXow6Le8wKrsqN+k6FgCSkBYQrrw3PYHGvuIBwksniWr/zTu1zuSk7rOeZ6zGCuGpDTuLHgiGLFN45aeAabIwlsKwWRuzMc9uezrz8vlr6/rS9MCCGEkIsR9J7rrMpxPiB4RrESmpJ3EMaS2FauHsrb/oW72vYHwzwi6dzPcj1msF1G5LUeLNijLTsIzYAghxHx5ovFlY+1+30JIYQQcgGiwXPCquxgB+3IDFiRNwdRbQSEWXkHoSUgXONLP3U369Si0ccktfMrXI8Z7FU5ICw6lIAQqe8gpBs7CAfJ7NePxOpH2v2+hBBCCLkAQe/ZY1UOsEodQt4cUHYQJrEWnT2/gzAn4iRT/Ld3s87p1NQTWY3zJbbbBLbLiILOKx8x+GNYf4uAcJiUvn4s1T7Y7vclhBBCyAUIBu8mq3I0ihRzpgCqnlEsBycbOwjbje6GIo4z+V+4m3UKBu+3ZVWOV985IDRrEA5Tua/tMwsfaPf7EkIIIeQCRIN3qRkQrMibA6i6R7Cs7CBsjM1jO5aRRz7LOwi/cTfrVF3Rb8+qna+w3UY5IOh9WHQOY8U/gfWhODZH57E9kW7MfThO5p67sbT0ZLvflxBCCCEXIBl8BU7dLFLMGf1yQAi2BoS0EhAEnGRKv3M366y4wh/LDjpeY7uNYLtNjYCw6o/dFhDkIsWjVG5vn2He0+73JYQQQsgFZI0+nm0NCCY/qq7bA0KmGRCYwh/ezToL7pF/wg9Y3+C6jOC6TSga/G8TEFg5IKRzK9vx7cfb/b6EEEIIuYCswTffWqQoGf2otAaE0ZYdhFkBx5nCf7+bdRZswU/z/dabXJcRfI8ZJYMfS84RrAYmzwWEelvnk3S+jFrtsXa/LyGEEEIuIGv0jbNquQZBDgg+eQchEMPaUPzNASFd6LybdUpmz0/xveZb3NVmQFh0jaDWEhB2Ys0jhuNMIYFo9OE2vy4hhBBCLkI0eD2c2glm0IZMvxWSwdc4YqgNxbExmsDWRDMgHKVzqm90DTDMI0W9+/N8j/mM6zJC7DGjZAxgSQkIG5E4NkcS2FFqEPblHYQYoqCAQAghhLwbRL1b1wgIAzZIBh8qzmEsB2KNgFDfQVBGPju+kZ/PMMwjotZt5npNb3BXDeCvGpHtsaBiCGDZNYKaP4aNoTi2RuexO5HG3hSDg7iAG3zlyy+Ul/7FvXpvQgghhLwDyeh/qt5qOTNgRVbvRdkZxVIghlpk5twOwl6cx2EqF7noz65Fo48VzUFTyRw8W/XHsDE8h53xFHYm0tiPZbA7kcb+JIP9KRaH8tVGnKQLuM6VcV2o4tns4vNfKq196l6+PyGEEELegqj3/AWnccqtlvutEHWeZkBoHDHIDYz24zwOk7kZAFcu8rPLhsDvVhxDr6/4JrAWmsLm8By2x5LYjWVwMMPjcE7E0byE41QeJ+kCrjElnLJlnHJlnHIVXBequJFfWsU23WYghBBC7itR7/5DVt28xSDqPCg7oljyT2A1Ig9RqgeEvTiPo5TEXyQglK2hD+X0nu2KfQjL3jGshaawEZ3F1ug8dhpHCUpISObkkJAp4BpTxDW2hGtcGde4Mk75Cp7Nr/z5/fguCCGEEKLgdd7/wKmdjVsMotbdDAjhaay/KSDky52dnQ/d6eeWbOH/lNW6b5YtISy5R+R+B+EZeRdhPIXdWAb70xwOZgUcJrJySEjLIeGEKeKEKTWCwvXswg0Aj96P74MQQgghHR0dOVPg5+tFisyADYLWjbJ9qCUgzJ07YjhK5WsA3jEgIBp9OG/yj/MDNuR1HlTtQ1jxjss3FpSCxNYbCwezIg7nmyHhOF3AcSMoFHGNK996rrjw6fv1nRBCCCEPPNEU+AlO4zqrHzHwGpccEHzjzYAwXt9B4HCUzO3d6fphXhd4f1bn3uR6LRAH7Cibg1h0jmDVN4H10DQ2o/VahDT2pljsz/DYb9lJOErlcZzKy2FBCQqnucU/u1/fCSGEEPLAk6yBH+a1zYAgaJwo2SKNgLAxkmgGBHlGwnUwzCPv+DO90Y+KaucLXI8ZbJcJea0HVUsYy+5R+aghohw1jNV3Eljsz8jHDQdzIg7nJRzOSzhK5nCYzOEwlcOpULHcr++EEEIIeeCteMa/l9c4b9VrEHj1+YDQ2EGYVDocJvMv1KLv3AJZMLk+mdW4vsz1mMBcNUDos6Ko92HBPoRlzxhWAzGsR+KNWw3144a9aQ77cXk34WBOxEEii4NEFodJCSdM0XOfvhJCCCGEiHrnR3it6yY7aAPTbwWncqBki2DRO4bV0JQcEMaS2JnMKAEh97U7TVksW0MfEjXOU77XAuaqAcwzBmT77SgbA1iwR7HsGUMtOIn1SLxxs2F7IoWdSXko1O4Mhz0lKOzPCtifE3DE5J++X98JIYQQ8sATnf7vF9TyDgI7YAM3aEfJGsaidwy10DQ2husBob6DkLv5Qm7lj97pquN2PP64pHVVuV4LuC4j2Gf0YJ8xQFI5UTIFsOiIYtk7jtXAJNbC8hqbIwlsjSexPZHG9mQGO1MMdqaYlgZN0i/dz++FEEIIeWAVbcFPi1r3l3mVA2y/FWy/FfygA2VbGEvecayGpuSAMJ5sXEs8zRRxQ6zeer6wPPhOPztv8vcLAzawXUawVw1gntGDvaqEBGMAC44oljxjWPHHsBaexvrQLDZGEtgcncfmWBJbEylsx9LYiqWxN8O/ciO79OH79b0QQgghD6xF79RHJYPvBW7QBqbXDLbHBKbbBKHPiqo1Ih8DhKawNZLAbiyDo4SEa0wJ15XmRTfEhbPnC8v/7e1+fs7g/1FR5XiZ6zaB7TLKAeEZA7guI7KDDhSNflTsQ1h0j2LZN4GV4CTWIjNYj85ifXgO6yNz2Bidx+Z4EjuTzOydrlYSQgghpA0EvVfkNS7kzQF5p2BkDtsTKewqRwn1BkZv6nDY0uXwulDF89WNj7zVz69Fo48VdN4hrk8+ZmBadhHYbhPEfhtyOi9K1jCqjigWPWNY9sewGprCangaa0NxudXzyNytzSnmB+7390MIIYQ8cIqO0Gezes+tkj0iT21UWipvjs1jJyYXIzb7EkjnQwJzPiQ8m11YeLt11t3jnxDVriOuzwK2ywDmqkE+cugygus2geuzIqt2IW/0o2yLoOoaxoJnFEvecSwHYlgNTqI2NNN1P78bQggh5IGEDlyRzIGkaPCi7Ihi0TeOldAU1qKzjZ4Hu0rPg/3b2iAfp5vdDU+UHYXrfOX1l6rVb3+79YpG92cljes612cB120Cq3zq/8/1mMH3W5FVO5HTe1E0BRq7ChvDs18/TZY/fj+/H0IIIeSBJDmiH8wafF/lNE4ULCFU3SPyX+uRGawPz2FzbB7bseZ45/1ZAYfzci+Co1Su0Qa5/rnGlnAqLPzXd1qzZA6lFhvrAAAgAElEQVT/M0nrqgkDtltcrxlcjxlcrxlsj/zhey3g+6wQ+m2Q1E6UzUFsjyVxmJRwTaz++/v13RBCCCEPrKpn9F8Les8Zp3ZA1HtRcgzJuwjydr6yi5DEdizTDAlK06LDeUkOCul8Y0fhKJ3HKV9J3GndDWfsfZLe+1RW7XxRGLBB6LWA75V3FbgeM/geMwoGH9bC09idYuWOikkJp1xFcz++F0IIIeSBVrQFf1s0eM9YlQOc2om8OYiKaxhL/ok3HTXI/QhY7M1w2JsVzgWFehvko1QOx5ni6oXX17i+wHWb5GLFp3VgntKC6zahaotgIzord1WcZrGvBIQTrrwEvPPsB0IIIYRcUt4x9HuC3gNW7QAzaIegdaFgDTeOGlbC03JIGJV3ErZi6cYchkZ3wzmh2QZ5PouTTHH9outXLf4f4futZ8xVAzJP6cBdNaJiDWM1MImNYeUmxTQrt1tOZHGcyb/0Yj7//nv5nRBCCCEPvJJ76BcEvQfyiGc7mEE7RL0XRVsEC55RuR5BuWa4rtxs2Io1uxvWjx1247xy/CDgKJkrXnT9bV388azK8ZV6bwSx34aqPYIVfwzrQ7ONIsn9Wflo4zhduHXCFGnUMyGEEHIvLbjDn8gafK+xLQGBVdmRNcghoeoebRw31IbiWB9uNiySuxueb4O8O8PhcD7b+408Q07jFtluEzLP6CH0WlC2hrHsHcd6ZAZbY/Py3Ic436xDEBb/9l59H4QQQgjp6OgoW62PZs3+DV7rAqtyKCHBBrZlJ6HqHmlcf1yNyEcO6yNz2BiTg8LmeApbShvkncnMrVNG+oYaGeWNvm6uxyz3Reg2oWQMyJ0bw9PYHElgO5aWr1kqo5+v8ZUsolSHQAghhNxTeWv4qfPHDLbmcYPOg4I1jLJrGAveMSz5Y0pQmEEtGsfasFyfsDGqNFaaYg6+0SLCnN7900K/VW6a1G1CXufFomsEq8G3qEOYz+KYKX7ltFx+4l59H4QQQgjpkK8cZo3+G5zGCVYlHzHUg0JmwAZe40LOFEDJMYSqewQLvnEsByfloBCelsOCcvywOZX6lW90/Zpj7oOiyvky2y23YJbUTlQdUawEYliPzmJ7/Hyh4lGmcPYsv/JP78V3QQghhJAWZffQrwgG701W7Th31FD/sGoHRL0HeUsIJfsQKo0dhQksB2JYCsRQi8zy6Oh427HPb7u21fpoTute5HrNyFw1QBywoWKLYMU3jvWhOLZG5+Xx0koPhsNUDqf8wv93L74HQgghhNwmbwl1CXoPeI0LbxUU6rsLgs6NnMmPgjWEkj2CsmMIFfvQtbudsAjgSs7o13O9ch0C32NGyRzEsncMa5EZbI4m5EJFpd3zUTKHU64Sb/f7E0IIIeRtFByhv8wafG/wGhc4tROc2iEHg0H5w6kc4FUOcCoHBI0LosaFojmAzan0Ry+zbt7g+wVxwHarPpuhYPBj0TWCWmhKqUNINwLCQSKLE7Z4eGNp6cl2vTchhBBC7qBsjX5cMvlfFXRuCEpQ4NVO8GoHBJUDgtoJUeVEVu3EgjOKvRkOJ5nqj1xuzcj3iirnq2yPCUyXETmNGwvOKFYDMWxEZ7E9nmypQxBxlMm/8ry49P3temdCCCGEXEBW713kBu1gB2zyp98Kps8CptcMpteCgjmIjdH5xi/tk1Thly6z3unU1BOSxr1ev+6YHbSjah/Csm8Ca5EZbI0lz9UhHKXyt67x1d9s1/sSQggh5AIEg9fHDNjA9FuR6bMg3WtGutcMQevCciCGzbEkdiYz2K3XBWTyn7/MetFo9GFJ7w1xvRYwXUbwfVaULSEsecewFp7G5ug8dmKZZj+EpIRrXDnQrvclhBBCyAVkTd4/ZVV2MAM2ZPosyPRZIBl8WA5MYm0o/qYx0Eep/MRl1ywYfZ/j+61nbLcJXI8JRaMfi+5R1ELT2BhJyHUI05wyclrCMVusYXv78Xa8LyGEEEIuIG8K/ASndsgBod8KQeNCxTmM5UAMa0NxbIzeFhCSuaXLrlk0Bj8tqOyvs90msF1G5HQeLDiH5YZJ0VlsjSexM8U0+yGkC199sbjysXa8LyGEEEIuYNEb/SinccpXHAdsEPVeVJzDcr+DoRlsjM5jayKFHSUgHM5LX77smmVr9Fslreu4XqiYVTlRdQwpg5vi2BpPYWeSwb5Sh3Ccyr1xKlR+tR3vSwghhJALWPL5nuR1brkPwoAVgtaNsiOKJf8EViMz2BhJyAFhSi4cPJiXXrvbPgh1Zav1UUnnmeV6zWC7TRD6bShb5MFNcj+E+fNzGZLS2SlfUbXrnQkhhBByBwAeFnTuW3KzJBsEjQtF+xAWfeOoRWawPjJ3PiAksre245evBygYvP+9UYfQa0bRGMCSexS10JQ8uGkifW4uwzWuLFIdAiGEEHIfCXrvS/WAwKmdKNoiWPSOYTU8jfXhOXnLf4rB3gyHgzkRN7JLH77smiWz/6eFQfsb9YZJrYOb1qOzt+1aZHGcKTzXjnUJIYQQckGi0bdXb7fMqhwoWMNY8I5hRQkIm+Nyb4LdGQ77cwKOmNKnLrvmojn60azaeYPtMYHtNkLSuOTBTX55cNPmWLIZEOZEHKbyr93gq/+2He9LCCGEkAvImvxpeQS0DeygHQVLCAueUayEprBW/2Xd0gvhJJ3/T5ddczsef1zSu+fYXguYbiOEATvK1giWfeNYb9QhKGsqdQjX+eoX2vG+hBBCCLmAvCnQJd9kkMc/580BVN8qICg1AUfJvPqyawK4UjD5r3K9lluNOgRzEEueMayFprE5mpCvV85w2JvlcZDI4pgtjl22QJIQQgghFyRZgr/TDAg2SEY/qu4RLAdbmyVlGr0QjtO5bDvWLRpDnxUG7a8z3SZwPWbkDb7m4KaRRLP2QS6OxAlT2D6Wah9sx9qEEEIIuYO8PfpjnNYFZtCOzIAVksGHiqveCyGOjdEEtiaUv+bjHA6T0kE71l3yRf+xqHY8z/bI1x0lrftcHcKWUofQ6IeQzr98KlR+rB1rE0IIIeQOisbwxwS956xeqCjqPSjXmyVFZhoBQW6WxOFoXnqpHVv9ZevUE1mtO8f1WsB2GyEOOlCxRZTBTc2di/r456Nk7uYpX/79drwzIYQQQu6AMUa/RdR7z1iVA5kBm9wsydlslrQ+ksCm0t1wd4bD4bx4sx0BAZ2dD0k6j4Hrs4LtNoHvs6Kk1CHUwspchlhrPwQJ19hyEFE83I73JoQQQsg7iOt0j4sG79dZlVyDwGtcKDnkZkmrkWmsj8hXHbcnGezOsDiYE88gHb+3HWuXzL7f5PttN9luE9geMwoGv9IPYQobSg+G3SlWqUMQcZwprmzn8+9vx9qEEEIIeQdla/nRrMH3AqNMdeTUThTtESz4xhvNkuSA0Lx2eI0rtmV4Usns+5Sodn719sFN5/ohTMqFivtzIo7SuS/dyC5dug8DIYQQQu6gs7PzoazRu8AqUx1ZlQNFW7NZ0trwbDMgKNv919LFn2zH2vlA4P2Sxl3jlELF7KADFfsQlv3NOoRGD4Y5AUdJ6eapuPB/tWNtQgghhNyBZA6EWLUDjMoOdtCOvCWIBc8YVoKTSi+E+UZA2JvlcZIq/D/tWDcajT6c13l9XJ8FTLcJvDK4ack7fr4OQSlUPJjP4oQtmgBcacf6hBBCCHkHWYvvb1l1s1lSzhxA1T0q90KIzmJj9HxAOEpIl26WVFc0+/+I77edsT1mZXCTH4ueUayGprA+PIvtlnHTBwkRJ0xRojoEQggh5D7IWYK/xmmcYFV2ZAbkZkkV10ijF0J9BHP9F/VRUkq2bW2D71+IKvsr9cFNOZ3n3OCmzXG5H8KuMizqOJ1/9tnsyve2a31CCCGEvI2sLfDPea27ERCyei/KSrOk1Tf1QuBxkJQ22rV22Rr6kKRxb7HdJjBdRmRVTlTsQ1jxx+ROjud2LwQcpaSbp9nyz7VrfUIIIYS8japj9Ht4rQv1q46iTmmW5J/AamRaCQip5l/y89nn27V22Wp9NKfzTLK9FrA9ch1CxRrGsncca5EZbIzMvakfwglXfprqEAghhJB7THJEPygava/WaxB4bUsvBKVYcGsihe1JBnszHA7npZfbOTipYPD+DddrucX0mMH1WlAyBbDortchzGFrPNmYBbGfEHHMFOOo1R5r1/qEEEIIeQv7buY9ot771UYvBI0TJXszINSbJdW7KR7MZV87SRW+rV3rFy2hz/ID9tfqdQh5nRcLLXUIWy11CHI/hMLhkVj9SLvWJ4QQQshbKFvLj4pG3y6jHDFwarkXwqJ3TB77rHQ1bDRLmhVubcezbSsULBqj35nVuI65XguYLiMktUsZ3DTRmCjZ2g/hMJV79YZY+Yl2rU8IIYSQt9DZ2flQ1uRLs2p5YBOrcqBgDcnNkkJT8lVHpRfCjnzV8ewkXfiZdq2/HY8/Luk9HNcvz2UQB+0oW5V+CJFpbI425zLszQo4nJdwwpb+rF3rE0IIIeRt5MxBfWtAyFuCzV4Iw3KzpK2JdKMW4CiZ+6N2rQ3gSk7v6eX7rWdsz/nBTauhKblh0kT6trkMhVC5XH60Xc9ACCGEkLeQNfr+vN4LgRm0I2cKoOpWeiFE49gYnW/cZNiL8zhJ5YztXL9iDvySMGB7vTm4ydfshzA8J89lmGqdy5Bfe6m6/e3tfAZCCCGE3Eayhn6lGRDqzZKGsRyIodY69nmKwV6cw2FKSrdz/ZIr+MmsxvUC12uRGyZp3ag6ovJchqE4NseSrTUQOErlX35WqP5IO5+BEEIIIbcpmYM/zuvcqBcqZg0+uRfC2wWERHatnevf8CWezOk8Za7XArbHDHHQgYotgmVfvR9CAtux5sCow/ncrROu9DvtfAZCCCGE3CbnDn9C0HneON8sKYpF34Ry1TGBrfFms6TDRPYaOtvXC6Gjo6OjYPDauX7rGddjAtdnRdkckusQwtPYGJ5rdnOcFXCQyOKULVkZhnmknc9ACCGEkBa8K/rtgsH7KqtygBm0gde6zzVLOjf2eYbDQUL8Epj997TzGQoW/2/xg/Y35DoEE4pGv9wPoaVhUmsdwnGmsPC8uPG+dj4DIYQQQlpI0eh7BYP3uhwQ7OA1LhTtESz4xpVeCLPNOoBpFgcJ8dXteLWtRYJla+gHRLXzJU5pu5zTeVB1DjfnMowlm/0Q5DqEF58Vlj/ZzmcghBBCSAums/MRyehfrgcETu1AwRpu9EKotfZCmGKwPyvcPE3mfrCdz3BqnXpC0rq36oWKWbVTrkPwjjcHN8XSzYCQlG7eECr/rp3PQAghhJAW6Oi4kjX5Y+eaJVlCqHpGm82SzjcsOjvO5H+h3c+RN/hG2D4LuF4z+H4ryha5DqHWMhOi3ovhIJHFSaagQmdnW2shCCGEENJCtAQM9YDQ6IXgGcVyIKYEhPO9EA7ns3/Z7meoWIN/wA/YbrE9ZnA9ZhTqg5vq/RBa5jIczIk4yRSz2/Htx9v9HIQQQghR5K2B/5fVOOUdhEG73AvBPSL3QhiKyzcZlL/glV/Q9rY/gyn4Y8Kg4zW21yz3Q9B7seAcxkpAHtwk1yE0BzcdpwovPpta+Y52PwchhBBCFHmL95d5rUvZQZB7IVRcI1jynw8IzauOYqLdz7AcnP5HosZ1ne0xg+0xIat2oWIfajRMko855ELFvTiPw6T0xnW++G/a/RyEEEIIUYgW32cErftWPSCIBi/KziiW/BNYjdTHPisBQb7JUGr3MyAafThn8Ka4fiu4HjOEAbtch+BV6hBGlbkM0yz2lTqE61z5zwFcafezEEIIIaSjo2PBPf4JUe+5xarsyAzYIOg853oh1GsA6oWKh3PZY6C9zZI6Ojo6imb/5/l+K9geE/heC4qmIJY8oy39EFLn5zIwxUlE8XC7n4MQQgghHR0dkiP6QUHvfbm1F0LJfluzpLEktmJyR8ODWeFLL+bz72/3cyzYwj8pDthucb1msD1m5FvqENbeVIcg4DidP/5aufyhdj8HIYQQQjo6OvbdzHsEg+eIUzvADNjAaZwo2iJYVHohrNV7IcQavRBeOeDL39Xu51hwj38gq3Z9Ta5DMEPSyHUIK/XBTfV+CPW5DMnca89lFz7d7ucghBBCSId8/i+Z/KJ81dEG9k3NkpRCxVgaO1Ms9uL8G4eJ/I+1+zmi0ejDeb03z/VZlcFNdlSsESz5xlELy4ObWp4BB4ns2TWu9Ll2PwchhBBCFFlTINJoljRoR94SbDRLqg3FsTE2r/xyZrAX589OUtn/cC+eo2AKXuX7rWC7TeD7rSiZg1h8hzqEE7Y4dC+egxBCCCEdHR1Zk/8qp/RCYAbtyJkDqLpH5LHPb3HV8Sgp/cW9eI6KOfQzospxk+u1gOu1oGCQBzetBFv7IWSwp7RdPk7ndhCtPXYvnoUQQgh54Ikm/++39kKQTH6UXcNyQIjMYH1kDlsTqcZUx8OEaLkXz7HmH/2urNr1Na5Rh+BG1RGVBzdF3qIOISW98mJx5WP34lkIIYSQB17OFPl5XusGq7KDGbBBMvgavRDkHYS528c+x+/Fc6BcfjSn8y7KOwhmiIMOlG0RLPvGsRaR6xC2J9LYVeoQDuezZyd8+RfvxbMQQgghD7yCJfwZQee+xaqUZkl6D8rOKBZ9E1iNzGB9eK5RhyA3S8pWYC0/ei+epWjwDQj9NrlhUr8NJbM8uGk1NIWN6Cy2lLkMe8pchlO2ZL0Xz0EIIYQ88KrB0e8R9Z6/Z1UOuVmS1o2SPSJ3U1R6IbQWKu7PCnso36OAYPT9mjBov8Upg5uKSh3CqlKHsDU2j10lIOzPCjhJ55duLC09eS+ehRBCCHmgic7Y+wS950VWJfdC4DUuuRdCvVlSy9jnnSkGB3PiCyep1Lfdi2cpmYKfzGpcr/BKHUJO65EbJvljWFf6IezEmm2Xj1P5l5+VFv/guVrtW+7F8xBCCCEPrH23+z1Zo3er3guBUztRtIWxoFx1vH3s835ceOUgUfjH9+JZlvp9T+a17g2+1wKux4ysyoFqvQ4hPI3NkQS2J1LYnZIDwkkyh1O2fHaNr6RvFJZ+huYzEEIIIW0SjUYfzhq9qUYvBJUDBUtICQiTWIs2rzpuT2awF+dvHs7nfupePAs6Ox/KaTx+vtdyxnabIPTZUDEHseQZw1poGpvRWeyMp7A/zeEoIeEkXcAJU8Q1poRToXJ0I7f07ykkEEIIIW2SNfntrb0Q8pYgqu4RLCu9EDZGz/VCODuaL/zWvXiO7UD8/TmdJ8X3mMF3GSH0WFA1B7HiGcPm0Cx2J9LYn+FxPC/hOJXDSbqA43QBJ5kiTpgSTvnq8bO5hXsSXgghhJAHTtbs/7tzzZJMgfMBYSSBrfGWXghJ6a/a/QwArkha93/l+yy3soMOVM0h1PwxbAzNYmcsib0pFgdxHgdzIo6UgHCcyjcCwnGmgBO2dHYqVrmvSrUPtvv5CCGEkAeOZAl+jtO45F4Ig3ZIRj8qzmEs+ieUZkkJbI41eyEczYuGdj9D2Rr6kKR27hZNASy5R1ELTGIjEsfWSAI74ynsTjLYn+FwMCvgMCHicF7CUTKH43QeR2k5KByl8zhhS6+ditU/pKMGQggh5JLy1sDPcVpXo1lSVu9FxTksX3WMTGN9eE4OCLEMdqdZHCayU+1+hoLG82dZtQsVWwRL7lGsBmJYC89gY3gOW2NJ+fbCFIP9OI+DWQEHiSwO57M4SuZwmMzhKJXDUUoOC6dcKfO8uPG+dj8jIYQQ8kDJmn2f4rWeN+pXHUW9B2XHkHLVcQprw7ONgLAzzeJgjs8yDPNIu9YH8JCk9UwJg3YUjX4sOoex7B1HLTgpX28cSWB7PIUdJaDU+yAcJLJKUJDkT1LCUSqH40zh2ROh+iPtej5CCCHkgcRb/d8l6j1fqc9jkJslDWHRO44VZZri5th8sxfCrLB7LEnvbdf6S77Ek5LOs833W5HTuuVRz+5ReQ5DeEYe1jQ6L090nMw0miXtKTUJB3NiIywcJLI4TEo3T9nKr9IxAyGEEHIJYq/zfYLee1w/YuA1TrlZkncMK0H5qqPcCyFd74Xw5et89dvbtb7kiH4wq3E9z/VaIA7YUTD6UbUPyW2WA5NYiyghYWwe2xNp7MQyjZbLe3Ee+7OC/JkTsT8n4CAh3TpmCr/frucjhBBCHkiIRh8WDJ4KowQETuVA0RpG1TOK5eAkakMzjZsMSkD4+/2E9APtWn/dO/Ztosb9Za7PArbbhKzKgZI5iAXlqGE12BISRuexNZ6UdzMm5SOH3WkWuzNc47M/K946Sub+qF3PRwghhDyQAFwRjb7Zeg0Cp3KgYAmi6h7FSnCyMdWxvsW/F+ffOE1k/3W71i9brY/mdd5jvt8GtscEvtcCSeNC2RLCgmukERJqynHDxkgCG6Pz2BxPYiuWxvZkBtuT8q7CjhwWXj+Yl361Xc9HCCGEPJAAXJGMfgurlgMCM2BD3tzSLCkyg42Wsc97MxyO5qW2NUtiOplHJK1riu+3geuVdxH4XgtyOi9K1jAWXCNY8o5jJTCJWngaa0NxrA/PyaOox5LYGEtiayLV+OxOsV/eTzBt2+EghBBCHliiwfs3nNoBdlA+ZpAMPlRdw1iu90JQChV3JjPYm2Zxks67X8zn39+u9YuWwB+Laie4PoscEnrN4PqsjZBQdUax6BnDsn8CK6EprIanURuKY214Fusjc1hXdhU2xuaxPZnhDoXlf9SuZyOEEEIeWJLR9zlO7ThjB2xg+q2Q9F5UnFEs+yZQC09jY3hOmaaYwd4Ug5NkDjf46vKz2ZXvRUfHpW8L5EOx75B0nkN+wA6219L4cP1WSFo3CuYgyvYhVF0jWPKNYzkQw0poCivhaaxGZlAbiqMWjWNtZO71rVj6D9vxnRBCCCEPtKoz9pGszr3JqeyoB4Ss1o2KfQjLvnHUQlPYiM5ia3Qee5MMDmdFnKTzuJYp4pSvPHsju/SpdjxH2RL+H4LGdZPtt4Lrs4LtsygfKwS1EzmDD0VrGBVnFAueUSz6xrEUiGEpEMNycBLL4SnUorOFzan0R9vxPIQQQsgDizFGv0Uy+dLcoPKXe58FwqAdBYMfC85hrPonsBmdw24sjYM4j+NkfQZCXp6mmCnglC2vfqUNW/q1aPRbJKMvyqsd4Abt4PqtYPutYPosYPqtYAftELRuSEY/CtYQSvYhlF3DqLhHUPWMYsE7fm15aPpnqf8BIYQQckk5a/C/CDr3magcKdTC01gfnsXWmHycUG9vfKh0LDxS2hofp/LnhiVd5yt97fjFXPZFPy4ZvXFB7XyDVznADtrADjQ/zKANrMoBTuOEqPdAMvmRswRRsIVPq66R30Jn50Pt+F4IIYSQB1bZGvqQZPId5swBLCrn+mvK9MZ6U6LdaRb7M3IzonMhoSUoHKXyuMaUXnperH6kHc+15Bv7cM7kH8zqvV/l1U5wKgc4lV0OBioHOLUcEHitC4Le+0bOEshnjYGfQzT6cDvWJ4QQQh5oBWv4F0WD96xgDWHBPYrlQAyr4WmsKQ2J6tcad6eVjoVzAg4SIg7mszhMSo0hSYfz8gyEU77ctu6FcZ3u8ZzZ/9M5U8AvGf27ot7zmqBz3xJ07luC3vN61uh7XjL5Rckc/JOyNfShdq1LCCGEPNAAXMnbQjZO44Rk8qPsjMq7CPXGSMq1xq2JVKNjYaOt8ZwoB4XGsCR5Z+EkU0x2tnmLv2y1Plp0hT9WsId+JmcO/rZkCX4ub4/8ctEW/fR2PN62a5aEEEII6ZDbK+fMgRyvcULQulGwhlF1j8gjnpUeA3IjIjkkbE/Kkxwb8w/mlKDQGJYk4jiVP0G5/Oi7/W6EEEIIuUuSKvrerMm/zWmcYFUOSEY/SvYhLHjHGkcNckhIYKM1JEwx8pGDEhRaP4fz4sunU+Un3u13I4QQQshdqkWjj0nmwBanccnFf2oncuZg46hhKRDDSj0kDM81Zh9sK7MP5KBwflDSwZzw0j6z/553+90IIYQQcpcAXMlZg0le6wKrsoMZtIPXupC3hFB2DmPR2+xWuKq0Wq7vJmyOp+QhSbFMY1DS9mQGe7PCJt0kIIQQQr6JAbiSswSfFvWeM1btADMohwRB60bBEkLFNdw4bpBDQuvsg3pQSGJzPIXN+pCkGc5CTYoIIYSQb3IlR/THRYP3tXodAjNoU3YS3MiZAyg7oqh6RrHom5CPHJTdhNpQHGvR2cauwvpoApvjSexMcz/5br8TIYQQQi5pWxd/XDIHRF7rAqt2gFHZlZBgA69xQTL5UbRHUHWPYMEzhkV/MyjcPiRpY2x+9zgqvffdfidCCCGEtEHRFvo3otH3Kqe5LSQM2MCqHRD1XuQtQZTsEfnYoT4kyT/ROlHx5tZo8hff7XchhBBCSJugEw/lbcGnBYP3JqdxglU7lOMGe+PDa1wQ9R7kzUEUbGGUHdHWIUm3Fv0xfS1ae+zdfhdCCCGEtNF2PP54zhY0C3rvG/XjhsZugnLDgVHZwanlpkqiwVsfknSzYB8KLfl8T77b70AIIYSQeyAajT5csEX+NGvyP8fr3OC0LjR2FFo+nMYFXudG1uj7ct4W+mspGqW6A0IIIeQfuqwj+D1FW7g/a/KfZA2+1wS9B/WPaPS9LpkD1yRL0FpyRD5FVxoJIYSQBwiAK2Vr9FurzrEfKTqG/p1oCvyuZPL/StEd+ecL7vEPoBNtHchECCGEEEIIIYQQQgghhBBCCCGEEEIIIYQQQgghhBBCCCGEEEIIIYQQQgghhBBCCCGEEEIIIYQQQgghhBBCCCGEEEIIIYQQQgghhBBCCCGEEEIIIYQQQgghhBBCCCGEEEL+//bggAQAAABA0P/X/QgVAAAAAAAAAAAAAAAAAAAAAAAAAAAAAAAAAAAAAAAAAAAAAAAAAAAAAAAAAAAAAAAAAE+LUH4AAABISURBVAAAAAAAAAAAAAAAAAAAAAAAAAAAAAAAAAAAAAAAAAAAAAAAAAAAAAAAAAAAAAAAAAAAAAAAAAAAAAAAAAAAAAAAADgIrvHTviXizL8AAAAASUVORK5CYII=;" vertex="1" parent="1">
          <mxGeometry x="521.25" y="240" width="150" height="150" as="geometry" />
        </mxCell>
      </root>
    </mxGraphModel>
  </diagram>
</mxfile>
